midi.Pattern(format=0, resolution=60, tracks=\
[[midi.TrackNameEvent(tick=0, data=[49, 57, 52, 50]),
  midi.CopyrightMetaEvent(tick=0, data=[60, 63, 62, 32, 38, 32, 67, 97, 112, 99, 111, 109, 32, 38, 32, 67, 111, 110, 118, 101, 114, 116, 101, 100, 32, 98, 121, 32, 110, 115, 102, 50, 109, 105, 100, 105]),
  midi.SetTempoEvent(tick=0, data=[15, 66, 64]),
  midi.SysexEvent(tick=0, channel=0, data=[5, 126, 127, 9, 1]),
  midi.ControlChangeEvent(tick=0, channel=0, data=[0, 0]),
  midi.ControlChangeEvent(tick=0, channel=0, data=[123, 0]),
  midi.ProgramChangeEvent(tick=0, channel=0, data=[80]),
  midi.ControlChangeEvent(tick=0, channel=0, data=[32, 0]),
  midi.ControlChangeEvent(tick=0, channel=0, data=[123, 0]),
  midi.ProgramChangeEvent(tick=0, channel=0, data=[80]),
  midi.ControlChangeEvent(tick=1, channel=1, data=[0, 0]),
  midi.ControlChangeEvent(tick=0, channel=1, data=[123, 0]),
  midi.ProgramChangeEvent(tick=0, channel=1, data=[80]),
  midi.ControlChangeEvent(tick=0, channel=1, data=[32, 0]),
  midi.ControlChangeEvent(tick=0, channel=1, data=[123, 0]),
  midi.ProgramChangeEvent(tick=0, channel=1, data=[80]),
  midi.ControlChangeEvent(tick=1, channel=2, data=[0, 0]),
  midi.ControlChangeEvent(tick=0, channel=2, data=[123, 0]),
  midi.ProgramChangeEvent(tick=0, channel=2, data=[80]),
  midi.ControlChangeEvent(tick=0, channel=2, data=[32, 0]),
  midi.ControlChangeEvent(tick=0, channel=2, data=[123, 0]),
  midi.ProgramChangeEvent(tick=0, channel=2, data=[80]),
  midi.ControlChangeEvent(tick=1, channel=9, data=[123, 0]),
  midi.ControlChangeEvent(tick=0, channel=9, data=[123, 0]),
  midi.ProgramChangeEvent(tick=0, channel=9, data=[0]),
  midi.ControlChangeEvent(tick=0, channel=9, data=[123, 0]),
  midi.ControlChangeEvent(tick=1, channel=9, data=[123, 0]),
  midi.ControlChangeEvent(tick=0, channel=9, data=[123, 0]),
  midi.ProgramChangeEvent(tick=0, channel=9, data=[0]),
  midi.ControlChangeEvent(tick=0, channel=9, data=[123, 0]),
  midi.ControlChangeEvent(tick=1, channel=5, data=[0, 0]),
  midi.ControlChangeEvent(tick=0, channel=5, data=[123, 0]),
  midi.ProgramChangeEvent(tick=0, channel=5, data=[80]),
  midi.ControlChangeEvent(tick=0, channel=5, data=[32, 0]),
  midi.ControlChangeEvent(tick=0, channel=5, data=[123, 0]),
  midi.ProgramChangeEvent(tick=0, channel=5, data=[80]),
  midi.ControlChangeEvent(tick=1, channel=6, data=[0, 0]),
  midi.ControlChangeEvent(tick=0, channel=6, data=[123, 0]),
  midi.ProgramChangeEvent(tick=0, channel=6, data=[80]),
  midi.ControlChangeEvent(tick=0, channel=6, data=[32, 0]),
  midi.ControlChangeEvent(tick=0, channel=6, data=[123, 0]),
  midi.ProgramChangeEvent(tick=0, channel=6, data=[80]),
  midi.ControlChangeEvent(tick=1, channel=7, data=[0, 0]),
  midi.ControlChangeEvent(tick=0, channel=7, data=[123, 0]),
  midi.ProgramChangeEvent(tick=0, channel=7, data=[80]),
  midi.ControlChangeEvent(tick=0, channel=7, data=[32, 0]),
  midi.ControlChangeEvent(tick=0, channel=7, data=[123, 0]),
  midi.ProgramChangeEvent(tick=0, channel=7, data=[80]),
  midi.ControlChangeEvent(tick=1, channel=8, data=[0, 0]),
  midi.ControlChangeEvent(tick=0, channel=8, data=[123, 0]),
  midi.ProgramChangeEvent(tick=0, channel=8, data=[80]),
  midi.ControlChangeEvent(tick=0, channel=8, data=[32, 0]),
  midi.ControlChangeEvent(tick=0, channel=8, data=[123, 0]),
  midi.ProgramChangeEvent(tick=0, channel=8, data=[80]),
  midi.ControlChangeEvent(tick=1, channel=10, data=[0, 0]),
  midi.ControlChangeEvent(tick=0, channel=10, data=[123, 0]),
  midi.ProgramChangeEvent(tick=0, channel=10, data=[80]),
  midi.ControlChangeEvent(tick=0, channel=10, data=[32, 0]),
  midi.ControlChangeEvent(tick=0, channel=10, data=[123, 0]),
  midi.ProgramChangeEvent(tick=0, channel=10, data=[80]),
  midi.ControlChangeEvent(tick=1, channel=11, data=[0, 0]),
  midi.ControlChangeEvent(tick=0, channel=11, data=[123, 0]),
  midi.ProgramChangeEvent(tick=0, channel=11, data=[80]),
  midi.ControlChangeEvent(tick=0, channel=11, data=[32, 0]),
  midi.ControlChangeEvent(tick=0, channel=11, data=[123, 0]),
  midi.ProgramChangeEvent(tick=0, channel=11, data=[80]),
  midi.ControlChangeEvent(tick=1, channel=12, data=[0, 0]),
  midi.ControlChangeEvent(tick=0, channel=12, data=[123, 0]),
  midi.ProgramChangeEvent(tick=0, channel=12, data=[80]),
  midi.ControlChangeEvent(tick=0, channel=12, data=[32, 0]),
  midi.ControlChangeEvent(tick=0, channel=12, data=[123, 0]),
  midi.ProgramChangeEvent(tick=0, channel=12, data=[80]),
  midi.ControlChangeEvent(tick=1, channel=13, data=[0, 0]),
  midi.ControlChangeEvent(tick=0, channel=13, data=[123, 0]),
  midi.ProgramChangeEvent(tick=0, channel=13, data=[80]),
  midi.ControlChangeEvent(tick=0, channel=13, data=[32, 0]),
  midi.ControlChangeEvent(tick=0, channel=13, data=[123, 0]),
  midi.ProgramChangeEvent(tick=0, channel=13, data=[80]),
  midi.ControlChangeEvent(tick=1, channel=14, data=[0, 0]),
  midi.ControlChangeEvent(tick=0, channel=14, data=[123, 0]),
  midi.ProgramChangeEvent(tick=0, channel=14, data=[0]),
  midi.ControlChangeEvent(tick=0, channel=14, data=[32, 0]),
  midi.ControlChangeEvent(tick=0, channel=14, data=[123, 0]),
  midi.ProgramChangeEvent(tick=0, channel=14, data=[0]),
  midi.ControlChangeEvent(tick=1, channel=15, data=[0, 0]),
  midi.ControlChangeEvent(tick=0, channel=15, data=[123, 0]),
  midi.ProgramChangeEvent(tick=0, channel=15, data=[0]),
  midi.ControlChangeEvent(tick=0, channel=15, data=[32, 0]),
  midi.ControlChangeEvent(tick=0, channel=15, data=[123, 0]),
  midi.ProgramChangeEvent(tick=0, channel=15, data=[0]),
  midi.ControlChangeEvent(tick=1, channel=0, data=[123, 0]),
  midi.ProgramChangeEvent(tick=0, channel=0, data=[80]),
  midi.ControlChangeEvent(tick=0, channel=0, data=[126, 127]),
  midi.ControlChangeEvent(tick=1, channel=0, data=[65, 127]),
  midi.ControlChangeEvent(tick=1, channel=0, data=[7, 127]),
  midi.ControlChangeEvent(tick=0, channel=0, data=[91, 0]),
  midi.ControlChangeEvent(tick=1, channel=0, data=[93, 0]),
  midi.ControlChangeEvent(tick=0, channel=0, data=[101, 0]),
  midi.ControlChangeEvent(tick=0, channel=0, data=[100, 0]),
  midi.ControlChangeEvent(tick=0, channel=0, data=[6, 12]),
  midi.ControlChangeEvent(tick=1, channel=1, data=[123, 0]),
  midi.ProgramChangeEvent(tick=0, channel=1, data=[80]),
  midi.ControlChangeEvent(tick=0, channel=1, data=[126, 127]),
  midi.ControlChangeEvent(tick=1, channel=1, data=[65, 127]),
  midi.ControlChangeEvent(tick=1, channel=1, data=[7, 127]),
  midi.ControlChangeEvent(tick=0, channel=1, data=[91, 0]),
  midi.ControlChangeEvent(tick=1, channel=1, data=[93, 0]),
  midi.ControlChangeEvent(tick=0, channel=1, data=[101, 0]),
  midi.ControlChangeEvent(tick=0, channel=1, data=[100, 0]),
  midi.ControlChangeEvent(tick=0, channel=1, data=[6, 12]),
  midi.ControlChangeEvent(tick=1, channel=2, data=[123, 0]),
  midi.ProgramChangeEvent(tick=0, channel=2, data=[80]),
  midi.ControlChangeEvent(tick=0, channel=2, data=[126, 127]),
  midi.ControlChangeEvent(tick=1, channel=2, data=[65, 127]),
  midi.ControlChangeEvent(tick=1, channel=2, data=[7, 127]),
  midi.ControlChangeEvent(tick=0, channel=2, data=[91, 0]),
  midi.ControlChangeEvent(tick=1, channel=2, data=[93, 0]),
  midi.ControlChangeEvent(tick=0, channel=2, data=[101, 0]),
  midi.ControlChangeEvent(tick=0, channel=2, data=[100, 0]),
  midi.ControlChangeEvent(tick=0, channel=2, data=[6, 12]),
  midi.ControlChangeEvent(tick=1, channel=9, data=[123, 0]),
  midi.ControlChangeEvent(tick=0, channel=9, data=[127, 0]),
  midi.ControlChangeEvent(tick=2, channel=9, data=[7, 127]),
  midi.ControlChangeEvent(tick=0, channel=3, data=[91, 0]),
  midi.ControlChangeEvent(tick=1, channel=3, data=[93, 0]),
  midi.ControlChangeEvent(tick=0, channel=3, data=[101, 0]),
  midi.ControlChangeEvent(tick=0, channel=3, data=[100, 0]),
  midi.ControlChangeEvent(tick=0, channel=3, data=[6, 12]),
  midi.ControlChangeEvent(tick=1, channel=9, data=[123, 0]),
  midi.ControlChangeEvent(tick=0, channel=9, data=[127, 0]),
  midi.ControlChangeEvent(tick=2, channel=9, data=[7, 127]),
  midi.ControlChangeEvent(tick=0, channel=4, data=[91, 0]),
  midi.ControlChangeEvent(tick=1, channel=4, data=[93, 0]),
  midi.ControlChangeEvent(tick=0, channel=4, data=[101, 0]),
  midi.ControlChangeEvent(tick=0, channel=4, data=[100, 0]),
  midi.ControlChangeEvent(tick=0, channel=4, data=[6, 12]),
  midi.ControlChangeEvent(tick=1, channel=5, data=[123, 0]),
  midi.ProgramChangeEvent(tick=0, channel=5, data=[80]),
  midi.ControlChangeEvent(tick=0, channel=5, data=[126, 127]),
  midi.ControlChangeEvent(tick=1, channel=5, data=[65, 127]),
  midi.ControlChangeEvent(tick=1, channel=5, data=[7, 127]),
  midi.ControlChangeEvent(tick=0, channel=5, data=[91, 0]),
  midi.ControlChangeEvent(tick=1, channel=5, data=[93, 0]),
  midi.ControlChangeEvent(tick=0, channel=5, data=[101, 0]),
  midi.ControlChangeEvent(tick=0, channel=5, data=[100, 0]),
  midi.ControlChangeEvent(tick=0, channel=5, data=[6, 12]),
  midi.ControlChangeEvent(tick=1, channel=6, data=[123, 0]),
  midi.ProgramChangeEvent(tick=0, channel=6, data=[80]),
  midi.ControlChangeEvent(tick=0, channel=6, data=[126, 127]),
  midi.ControlChangeEvent(tick=1, channel=6, data=[65, 127]),
  midi.ControlChangeEvent(tick=1, channel=6, data=[7, 127]),
  midi.ControlChangeEvent(tick=0, channel=6, data=[91, 0]),
  midi.ControlChangeEvent(tick=1, channel=6, data=[93, 0]),
  midi.ControlChangeEvent(tick=0, channel=6, data=[101, 0]),
  midi.ControlChangeEvent(tick=0, channel=6, data=[100, 0]),
  midi.ControlChangeEvent(tick=0, channel=6, data=[6, 12]),
  midi.ControlChangeEvent(tick=1, channel=7, data=[123, 0]),
  midi.ProgramChangeEvent(tick=0, channel=7, data=[80]),
  midi.ControlChangeEvent(tick=0, channel=7, data=[126, 127]),
  midi.ControlChangeEvent(tick=1, channel=7, data=[65, 127]),
  midi.ControlChangeEvent(tick=1, channel=7, data=[7, 127]),
  midi.ControlChangeEvent(tick=0, channel=7, data=[91, 0]),
  midi.ControlChangeEvent(tick=1, channel=7, data=[93, 0]),
  midi.ControlChangeEvent(tick=0, channel=7, data=[101, 0]),
  midi.ControlChangeEvent(tick=0, channel=7, data=[100, 0]),
  midi.ControlChangeEvent(tick=0, channel=7, data=[6, 12]),
  midi.ControlChangeEvent(tick=1, channel=8, data=[123, 0]),
  midi.ProgramChangeEvent(tick=0, channel=8, data=[80]),
  midi.ControlChangeEvent(tick=0, channel=8, data=[126, 127]),
  midi.ControlChangeEvent(tick=1, channel=8, data=[65, 127]),
  midi.ControlChangeEvent(tick=1, channel=8, data=[7, 127]),
  midi.ControlChangeEvent(tick=0, channel=8, data=[91, 0]),
  midi.ControlChangeEvent(tick=1, channel=8, data=[93, 0]),
  midi.ControlChangeEvent(tick=0, channel=8, data=[101, 0]),
  midi.ControlChangeEvent(tick=0, channel=8, data=[100, 0]),
  midi.ControlChangeEvent(tick=0, channel=8, data=[6, 12]),
  midi.ControlChangeEvent(tick=1, channel=10, data=[123, 0]),
  midi.ProgramChangeEvent(tick=0, channel=10, data=[80]),
  midi.ControlChangeEvent(tick=0, channel=10, data=[126, 127]),
  midi.ControlChangeEvent(tick=1, channel=10, data=[65, 127]),
  midi.ControlChangeEvent(tick=1, channel=10, data=[7, 127]),
  midi.ControlChangeEvent(tick=0, channel=10, data=[91, 0]),
  midi.ControlChangeEvent(tick=1, channel=10, data=[93, 0]),
  midi.ControlChangeEvent(tick=0, channel=10, data=[101, 0]),
  midi.ControlChangeEvent(tick=0, channel=10, data=[100, 0]),
  midi.ControlChangeEvent(tick=0, channel=10, data=[6, 12]),
  midi.ControlChangeEvent(tick=1, channel=11, data=[123, 0]),
  midi.ProgramChangeEvent(tick=0, channel=11, data=[80]),
  midi.ControlChangeEvent(tick=0, channel=11, data=[126, 127]),
  midi.ControlChangeEvent(tick=1, channel=11, data=[65, 127]),
  midi.ControlChangeEvent(tick=1, channel=11, data=[7, 127]),
  midi.ControlChangeEvent(tick=0, channel=11, data=[91, 0]),
  midi.ControlChangeEvent(tick=1, channel=11, data=[93, 0]),
  midi.ControlChangeEvent(tick=0, channel=11, data=[101, 0]),
  midi.ControlChangeEvent(tick=0, channel=11, data=[100, 0]),
  midi.ControlChangeEvent(tick=0, channel=11, data=[6, 12]),
  midi.ControlChangeEvent(tick=1, channel=12, data=[123, 0]),
  midi.ProgramChangeEvent(tick=0, channel=12, data=[80]),
  midi.ControlChangeEvent(tick=0, channel=12, data=[126, 127]),
  midi.ControlChangeEvent(tick=1, channel=12, data=[65, 127]),
  midi.ControlChangeEvent(tick=1, channel=12, data=[7, 127]),
  midi.ControlChangeEvent(tick=0, channel=12, data=[91, 0]),
  midi.ControlChangeEvent(tick=1, channel=12, data=[93, 0]),
  midi.ControlChangeEvent(tick=0, channel=12, data=[101, 0]),
  midi.ControlChangeEvent(tick=0, channel=12, data=[100, 0]),
  midi.ControlChangeEvent(tick=0, channel=12, data=[6, 12]),
  midi.ControlChangeEvent(tick=1, channel=13, data=[123, 0]),
  midi.ProgramChangeEvent(tick=0, channel=13, data=[80]),
  midi.ControlChangeEvent(tick=0, channel=13, data=[126, 127]),
  midi.ControlChangeEvent(tick=1, channel=13, data=[65, 127]),
  midi.ControlChangeEvent(tick=1, channel=13, data=[7, 127]),
  midi.ControlChangeEvent(tick=0, channel=13, data=[91, 0]),
  midi.ControlChangeEvent(tick=1, channel=13, data=[93, 0]),
  midi.ControlChangeEvent(tick=0, channel=13, data=[101, 0]),
  midi.ControlChangeEvent(tick=0, channel=13, data=[100, 0]),
  midi.ControlChangeEvent(tick=0, channel=13, data=[6, 12]),
  midi.ControlChangeEvent(tick=1, channel=14, data=[123, 0]),
  midi.ProgramChangeEvent(tick=0, channel=14, data=[0]),
  midi.ControlChangeEvent(tick=0, channel=14, data=[126, 127]),
  midi.ControlChangeEvent(tick=1, channel=14, data=[65, 0]),
  midi.ControlChangeEvent(tick=1, channel=14, data=[7, 127]),
  midi.ControlChangeEvent(tick=0, channel=14, data=[91, 0]),
  midi.ControlChangeEvent(tick=1, channel=14, data=[93, 0]),
  midi.ControlChangeEvent(tick=0, channel=14, data=[101, 0]),
  midi.ControlChangeEvent(tick=0, channel=14, data=[100, 0]),
  midi.ControlChangeEvent(tick=0, channel=14, data=[6, 12]),
  midi.ControlChangeEvent(tick=1, channel=15, data=[123, 0]),
  midi.ProgramChangeEvent(tick=0, channel=15, data=[0]),
  midi.ControlChangeEvent(tick=0, channel=15, data=[126, 127]),
  midi.ControlChangeEvent(tick=1, channel=15, data=[65, 0]),
  midi.ControlChangeEvent(tick=1, channel=15, data=[7, 127]),
  midi.ControlChangeEvent(tick=0, channel=15, data=[91, 0]),
  midi.ControlChangeEvent(tick=1, channel=15, data=[93, 0]),
  midi.ControlChangeEvent(tick=0, channel=15, data=[101, 0]),
  midi.ControlChangeEvent(tick=0, channel=15, data=[100, 0]),
  midi.ControlChangeEvent(tick=0, channel=15, data=[6, 12]),
  midi.NoteOnEvent(tick=1, channel=9, data=[59, 100]),
  midi.NoteOnEvent(tick=2, channel=0, data=[85, 127]),
  midi.PitchWheelEvent(tick=0, channel=0, data=[10, 63]),
  midi.ControlChangeEvent(tick=0, channel=0, data=[11, 127]),
  midi.NoteOffEvent(tick=1, channel=0, data=[85, 0]),
  midi.NoteOnEvent(tick=0, channel=0, data=[85, 127]),
  midi.PitchWheelEvent(tick=0, channel=0, data=[10, 63]),
  midi.ControlChangeEvent(tick=0, channel=0, data=[11, 127]),
  midi.NoteOffEvent(tick=1, channel=0, data=[85, 0]),
  midi.NoteOnEvent(tick=0, channel=0, data=[85, 127]),
  midi.PitchWheelEvent(tick=0, channel=0, data=[10, 63]),
  midi.ControlChangeEvent(tick=0, channel=0, data=[11, 127]),
  midi.ControlChangeEvent(tick=1, channel=0, data=[11, 122]),
  midi.NoteOffEvent(tick=1, channel=0, data=[85, 0]),
  midi.NoteOnEvent(tick=0, channel=0, data=[85, 127]),
  midi.PitchWheelEvent(tick=0, channel=0, data=[10, 63]),
  midi.ControlChangeEvent(tick=0, channel=0, data=[11, 127]),
  midi.ControlChangeEvent(tick=3, channel=0, data=[11, 122]),
  midi.ControlChangeEvent(tick=4, channel=0, data=[11, 118]),
  midi.NoteOffEvent(tick=2, channel=0, data=[85, 0]),
  midi.NoteOffEvent(tick=1, channel=9, data=[59, 0]),
  midi.NoteOnEvent(tick=8, channel=0, data=[85, 127]),
  midi.PitchWheelEvent(tick=0, channel=0, data=[10, 63]),
  midi.ControlChangeEvent(tick=0, channel=0, data=[11, 127]),
  midi.NoteOffEvent(tick=1, channel=0, data=[85, 0]),
  midi.NoteOnEvent(tick=0, channel=0, data=[85, 127]),
  midi.PitchWheelEvent(tick=0, channel=0, data=[10, 63]),
  midi.ControlChangeEvent(tick=0, channel=0, data=[11, 127]),
  midi.NoteOffEvent(tick=1, channel=0, data=[85, 0]),
  midi.NoteOnEvent(tick=0, channel=0, data=[85, 127]),
  midi.PitchWheelEvent(tick=0, channel=0, data=[10, 63]),
  midi.ControlChangeEvent(tick=0, channel=0, data=[11, 122]),
  midi.NoteOffEvent(tick=2, channel=0, data=[85, 0]),
  midi.NoteOnEvent(tick=0, channel=0, data=[85, 127]),
  midi.PitchWheelEvent(tick=0, channel=0, data=[10, 63]),
  midi.ControlChangeEvent(tick=0, channel=0, data=[11, 127]),
  midi.ControlChangeEvent(tick=2, channel=0, data=[11, 122]),
  midi.ControlChangeEvent(tick=4, channel=0, data=[11, 118]),
  midi.NoteOffEvent(tick=3, channel=0, data=[85, 0]),
  midi.NoteOnEvent(tick=9, channel=0, data=[85, 127]),
  midi.PitchWheelEvent(tick=0, channel=0, data=[10, 63]),
  midi.ControlChangeEvent(tick=0, channel=0, data=[11, 127]),
  midi.NoteOffEvent(tick=1, channel=0, data=[85, 0]),
  midi.NoteOnEvent(tick=0, channel=0, data=[85, 127]),
  midi.PitchWheelEvent(tick=0, channel=0, data=[10, 63]),
  midi.ControlChangeEvent(tick=0, channel=0, data=[11, 122]),
  midi.NoteOffEvent(tick=1, channel=0, data=[85, 0]),
  midi.NoteOnEvent(tick=0, channel=0, data=[85, 127]),
  midi.PitchWheelEvent(tick=0, channel=0, data=[10, 63]),
  midi.ControlChangeEvent(tick=0, channel=0, data=[11, 127]),
  midi.NoteOffEvent(tick=2, channel=0, data=[85, 0]),
  midi.NoteOnEvent(tick=0, channel=0, data=[85, 127]),
  midi.PitchWheelEvent(tick=0, channel=0, data=[10, 63]),
  midi.ControlChangeEvent(tick=0, channel=0, data=[11, 127]),
  midi.ControlChangeEvent(tick=1, channel=0, data=[11, 122]),
  midi.ControlChangeEvent(tick=4, channel=0, data=[11, 118]),
  midi.NoteOffEvent(tick=2, channel=0, data=[85, 0]),
  midi.NoteOnEvent(tick=0, channel=0, data=[85, 127]),
  midi.PitchWheelEvent(tick=0, channel=0, data=[10, 63]),
  midi.ControlChangeEvent(tick=0, channel=0, data=[11, 127]),
  midi.NoteOffEvent(tick=1, channel=0, data=[85, 0]),
  midi.NoteOnEvent(tick=0, channel=0, data=[85, 127]),
  midi.PitchWheelEvent(tick=0, channel=0, data=[10, 63]),
  midi.ControlChangeEvent(tick=0, channel=0, data=[11, 127]),
  midi.NoteOffEvent(tick=1, channel=0, data=[85, 0]),
  midi.NoteOnEvent(tick=0, channel=0, data=[85, 127]),
  midi.PitchWheelEvent(tick=0, channel=0, data=[10, 63]),
  midi.ControlChangeEvent(tick=0, channel=0, data=[11, 122]),
  midi.NoteOffEvent(tick=2, channel=0, data=[85, 0]),
  midi.NoteOnEvent(tick=0, channel=0, data=[85, 127]),
  midi.PitchWheelEvent(tick=0, channel=0, data=[10, 63]),
  midi.ControlChangeEvent(tick=0, channel=0, data=[11, 127]),
  midi.ControlChangeEvent(tick=2, channel=0, data=[11, 122]),
  midi.ControlChangeEvent(tick=4, channel=0, data=[11, 118]),
  midi.NoteOffEvent(tick=3, channel=0, data=[85, 0]),
  midi.NoteOnEvent(tick=9, channel=0, data=[85, 127]),
  midi.PitchWheelEvent(tick=0, channel=0, data=[10, 63]),
  midi.ControlChangeEvent(tick=0, channel=0, data=[11, 127]),
  midi.NoteOffEvent(tick=1, channel=0, data=[85, 0]),
  midi.NoteOnEvent(tick=0, channel=0, data=[85, 127]),
  midi.PitchWheelEvent(tick=0, channel=0, data=[10, 63]),
  midi.ControlChangeEvent(tick=0, channel=0, data=[11, 122]),
  midi.NoteOffEvent(tick=1, channel=0, data=[85, 0]),
  midi.NoteOnEvent(tick=0, channel=0, data=[85, 127]),
  midi.PitchWheelEvent(tick=0, channel=0, data=[10, 63]),
  midi.ControlChangeEvent(tick=0, channel=0, data=[11, 127]),
  midi.NoteOffEvent(tick=2, channel=0, data=[85, 0]),
  midi.NoteOnEvent(tick=0, channel=0, data=[85, 127]),
  midi.PitchWheelEvent(tick=0, channel=0, data=[10, 63]),
  midi.ControlChangeEvent(tick=0, channel=0, data=[11, 127]),
  midi.ControlChangeEvent(tick=1, channel=0, data=[11, 122]),
  midi.ControlChangeEvent(tick=4, channel=0, data=[11, 118]),
  midi.NoteOffEvent(tick=2, channel=0, data=[85, 0]),
  midi.NoteOnEvent(tick=0, channel=0, data=[85, 127]),
  midi.PitchWheelEvent(tick=0, channel=0, data=[10, 63]),
  midi.ControlChangeEvent(tick=0, channel=0, data=[11, 127]),
  midi.NoteOffEvent(tick=1, channel=0, data=[85, 0]),
  midi.NoteOnEvent(tick=0, channel=0, data=[85, 127]),
  midi.PitchWheelEvent(tick=0, channel=0, data=[10, 63]),
  midi.ControlChangeEvent(tick=0, channel=0, data=[11, 127]),
  midi.NoteOffEvent(tick=1, channel=0, data=[85, 0]),
  midi.NoteOnEvent(tick=0, channel=0, data=[85, 127]),
  midi.PitchWheelEvent(tick=0, channel=0, data=[10, 63]),
  midi.ControlChangeEvent(tick=0, channel=0, data=[11, 122]),
  midi.NoteOffEvent(tick=2, channel=0, data=[85, 0]),
  midi.NoteOnEvent(tick=0, channel=0, data=[85, 127]),
  midi.PitchWheelEvent(tick=0, channel=0, data=[10, 63]),
  midi.ControlChangeEvent(tick=0, channel=0, data=[11, 127]),
  midi.ControlChangeEvent(tick=2, channel=0, data=[11, 122]),
  midi.ControlChangeEvent(tick=4, channel=0, data=[11, 118]),
  midi.NoteOffEvent(tick=1, channel=0, data=[85, 0]),
  midi.NoteOnEvent(tick=0, channel=0, data=[85, 127]),
  midi.PitchWheelEvent(tick=0, channel=0, data=[10, 63]),
  midi.ControlChangeEvent(tick=0, channel=0, data=[11, 127]),
  midi.NoteOffEvent(tick=1, channel=0, data=[85, 0]),
  midi.NoteOnEvent(tick=0, channel=0, data=[85, 127]),
  midi.PitchWheelEvent(tick=0, channel=0, data=[10, 63]),
  midi.ControlChangeEvent(tick=0, channel=0, data=[11, 127]),
  midi.NoteOffEvent(tick=1, channel=0, data=[85, 0]),
  midi.NoteOnEvent(tick=0, channel=0, data=[85, 127]),
  midi.PitchWheelEvent(tick=0, channel=0, data=[10, 63]),
  midi.ControlChangeEvent(tick=0, channel=0, data=[11, 127]),
  midi.ControlChangeEvent(tick=1, channel=0, data=[11, 122]),
  midi.NoteOffEvent(tick=1, channel=0, data=[85, 0]),
  midi.NoteOnEvent(tick=0, channel=0, data=[85, 127]),
  midi.PitchWheelEvent(tick=0, channel=0, data=[10, 63]),
  midi.ControlChangeEvent(tick=0, channel=0, data=[11, 127]),
  midi.ControlChangeEvent(tick=3, channel=0, data=[11, 122]),
  midi.NoteOffEvent(tick=4, channel=0, data=[85, 0]),
  midi.NoteOnEvent(tick=0, channel=0, data=[85, 127]),
  midi.PitchWheelEvent(tick=0, channel=0, data=[10, 63]),
  midi.ControlChangeEvent(tick=0, channel=0, data=[11, 122]),
  midi.NoteOffEvent(tick=1, channel=0, data=[85, 0]),
  midi.NoteOnEvent(tick=0, channel=0, data=[85, 127]),
  midi.PitchWheelEvent(tick=0, channel=0, data=[10, 63]),
  midi.ControlChangeEvent(tick=0, channel=0, data=[11, 127]),
  midi.NoteOffEvent(tick=1, channel=0, data=[85, 0]),
  midi.NoteOnEvent(tick=0, channel=0, data=[85, 127]),
  midi.PitchWheelEvent(tick=0, channel=0, data=[10, 63]),
  midi.ControlChangeEvent(tick=0, channel=0, data=[11, 127]),
  midi.NoteOffEvent(tick=2, channel=0, data=[85, 0]),
  midi.NoteOnEvent(tick=0, channel=0, data=[85, 127]),
  midi.PitchWheelEvent(tick=0, channel=0, data=[10, 63]),
  midi.ControlChangeEvent(tick=0, channel=0, data=[11, 122]),
  midi.ControlChangeEvent(tick=4, channel=0, data=[11, 118]),
  midi.NoteOffEvent(tick=3, channel=0, data=[85, 0]),
  midi.NoteOnEvent(tick=0, channel=0, data=[85, 127]),
  midi.PitchWheelEvent(tick=0, channel=0, data=[10, 63]),
  midi.ControlChangeEvent(tick=0, channel=0, data=[11, 127]),
  midi.NoteOffEvent(tick=1, channel=0, data=[85, 0]),
  midi.NoteOnEvent(tick=0, channel=0, data=[85, 127]),
  midi.PitchWheelEvent(tick=0, channel=0, data=[10, 63]),
  midi.ControlChangeEvent(tick=0, channel=0, data=[11, 122]),
  midi.NoteOffEvent(tick=1, channel=0, data=[85, 0]),
  midi.NoteOnEvent(tick=0, channel=0, data=[85, 127]),
  midi.PitchWheelEvent(tick=0, channel=0, data=[10, 63]),
  midi.ControlChangeEvent(tick=0, channel=0, data=[11, 127]),
  midi.NoteOffEvent(tick=2, channel=0, data=[85, 0]),
  midi.NoteOnEvent(tick=0, channel=0, data=[85, 127]),
  midi.PitchWheelEvent(tick=0, channel=0, data=[10, 63]),
  midi.ControlChangeEvent(tick=0, channel=0, data=[11, 127]),
  midi.ControlChangeEvent(tick=1, channel=0, data=[11, 122]),
  midi.ControlChangeEvent(tick=4, channel=0, data=[11, 118]),
  midi.NoteOffEvent(tick=2, channel=0, data=[85, 0]),
  midi.NoteOnEvent(tick=0, channel=0, data=[85, 127]),
  midi.PitchWheelEvent(tick=0, channel=0, data=[10, 63]),
  midi.ControlChangeEvent(tick=0, channel=0, data=[11, 127]),
  midi.NoteOffEvent(tick=1, channel=0, data=[85, 0]),
  midi.NoteOnEvent(tick=0, channel=0, data=[85, 127]),
  midi.PitchWheelEvent(tick=0, channel=0, data=[10, 63]),
  midi.ControlChangeEvent(tick=0, channel=0, data=[11, 127]),
  midi.NoteOffEvent(tick=1, channel=0, data=[85, 0]),
  midi.NoteOnEvent(tick=0, channel=0, data=[85, 127]),
  midi.PitchWheelEvent(tick=0, channel=0, data=[10, 63]),
  midi.ControlChangeEvent(tick=0, channel=0, data=[11, 122]),
  midi.NoteOffEvent(tick=2, channel=0, data=[85, 0]),
  midi.NoteOnEvent(tick=0, channel=0, data=[85, 127]),
  midi.PitchWheelEvent(tick=0, channel=0, data=[10, 63]),
  midi.ControlChangeEvent(tick=0, channel=0, data=[11, 127]),
  midi.ControlChangeEvent(tick=2, channel=0, data=[11, 122]),
  midi.ControlChangeEvent(tick=4, channel=0, data=[11, 118]),
  midi.NoteOffEvent(tick=3, channel=0, data=[85, 0]),
  midi.NoteOnEvent(tick=31, channel=9, data=[59, 100]),
  midi.NoteOffEvent(tick=58, channel=9, data=[59, 0]),
  midi.NoteOnEvent(tick=8, channel=0, data=[85, 127]),
  midi.PitchWheelEvent(tick=0, channel=0, data=[10, 63]),
  midi.ControlChangeEvent(tick=0, channel=0, data=[11, 127]),
  midi.NoteOffEvent(tick=1, channel=0, data=[85, 0]),
  midi.NoteOnEvent(tick=0, channel=0, data=[85, 127]),
  midi.PitchWheelEvent(tick=0, channel=0, data=[10, 63]),
  midi.ControlChangeEvent(tick=0, channel=0, data=[11, 122]),
  midi.NoteOffEvent(tick=1, channel=0, data=[85, 0]),
  midi.NoteOnEvent(tick=0, channel=0, data=[85, 127]),
  midi.PitchWheelEvent(tick=0, channel=0, data=[10, 63]),
  midi.ControlChangeEvent(tick=0, channel=0, data=[11, 127]),
  midi.NoteOffEvent(tick=2, channel=0, data=[85, 0]),
  midi.NoteOnEvent(tick=0, channel=0, data=[85, 127]),
  midi.PitchWheelEvent(tick=0, channel=0, data=[10, 63]),
  midi.ControlChangeEvent(tick=0, channel=0, data=[11, 127]),
  midi.ControlChangeEvent(tick=1, channel=0, data=[11, 122]),
  midi.ControlChangeEvent(tick=4, channel=0, data=[11, 118]),
  midi.NoteOffEvent(tick=4, channel=0, data=[85, 0]),
  midi.NoteOnEvent(tick=9, channel=9, data=[59, 100]),
  midi.NoteOffEvent(tick=58, channel=9, data=[59, 0]),
  midi.NoteOnEvent(tick=8, channel=0, data=[85, 127]),
  midi.PitchWheelEvent(tick=0, channel=0, data=[10, 63]),
  midi.ControlChangeEvent(tick=0, channel=0, data=[11, 122]),
  midi.NoteOffEvent(tick=1, channel=0, data=[85, 0]),
  midi.NoteOnEvent(tick=0, channel=0, data=[85, 127]),
  midi.PitchWheelEvent(tick=0, channel=0, data=[10, 63]),
  midi.ControlChangeEvent(tick=0, channel=0, data=[11, 127]),
  midi.NoteOffEvent(tick=1, channel=0, data=[85, 0]),
  midi.NoteOnEvent(tick=0, channel=0, data=[85, 127]),
  midi.PitchWheelEvent(tick=0, channel=0, data=[10, 63]),
  midi.ControlChangeEvent(tick=0, channel=0, data=[11, 127]),
  midi.NoteOffEvent(tick=2, channel=0, data=[85, 0]),
  midi.NoteOnEvent(tick=0, channel=0, data=[85, 127]),
  midi.PitchWheelEvent(tick=0, channel=0, data=[10, 63]),
  midi.ControlChangeEvent(tick=0, channel=0, data=[11, 122]),
  midi.ControlChangeEvent(tick=4, channel=0, data=[11, 118]),
  midi.ControlChangeEvent(tick=4, channel=0, data=[11, 113]),
  midi.NoteOffEvent(tick=1, channel=0, data=[85, 0]),
  midi.NoteOnEvent(tick=9, channel=9, data=[59, 100]),
  midi.NoteOnEvent(tick=22, channel=0, data=[85, 127]),
  midi.PitchWheelEvent(tick=0, channel=0, data=[10, 63]),
  midi.ControlChangeEvent(tick=0, channel=0, data=[11, 127]),
  midi.NoteOffEvent(tick=1, channel=0, data=[85, 0]),
  midi.NoteOnEvent(tick=0, channel=0, data=[85, 127]),
  midi.PitchWheelEvent(tick=0, channel=0, data=[10, 63]),
  midi.ControlChangeEvent(tick=0, channel=0, data=[11, 127]),
  midi.NoteOffEvent(tick=1, channel=0, data=[85, 0]),
  midi.NoteOnEvent(tick=0, channel=0, data=[85, 127]),
  midi.PitchWheelEvent(tick=0, channel=0, data=[10, 63]),
  midi.ControlChangeEvent(tick=0, channel=0, data=[11, 127]),
  midi.ControlChangeEvent(tick=1, channel=0, data=[11, 122]),
  midi.NoteOffEvent(tick=0, channel=9, data=[59, 0]),
  midi.NoteOffEvent(tick=1, channel=0, data=[85, 0]),
  midi.NoteOnEvent(tick=0, channel=0, data=[85, 127]),
  midi.PitchWheelEvent(tick=0, channel=0, data=[10, 63]),
  midi.ControlChangeEvent(tick=0, channel=0, data=[11, 127]),
  midi.ControlChangeEvent(tick=3, channel=0, data=[11, 122]),
  midi.ControlChangeEvent(tick=4, channel=0, data=[11, 118]),
  midi.NoteOffEvent(tick=2, channel=0, data=[85, 0]),
  midi.NoteOnEvent(tick=9, channel=9, data=[59, 100]),
  midi.NoteOnEvent(tick=22, channel=0, data=[85, 127]),
  midi.PitchWheelEvent(tick=0, channel=0, data=[10, 63]),
  midi.ControlChangeEvent(tick=0, channel=0, data=[11, 127]),
  midi.NoteOffEvent(tick=1, channel=0, data=[85, 0]),
  midi.NoteOnEvent(tick=0, channel=0, data=[85, 127]),
  midi.PitchWheelEvent(tick=0, channel=0, data=[10, 63]),
  midi.ControlChangeEvent(tick=0, channel=0, data=[11, 127]),
  midi.NoteOffEvent(tick=1, channel=0, data=[85, 0]),
  midi.NoteOnEvent(tick=0, channel=0, data=[85, 127]),
  midi.PitchWheelEvent(tick=0, channel=0, data=[10, 63]),
  midi.ControlChangeEvent(tick=0, channel=0, data=[11, 122]),
  midi.NoteOffEvent(tick=1, channel=9, data=[59, 0]),
  midi.NoteOffEvent(tick=1, channel=0, data=[85, 0]),
  midi.NoteOnEvent(tick=0, channel=0, data=[85, 127]),
  midi.PitchWheelEvent(tick=0, channel=0, data=[10, 63]),
  midi.ControlChangeEvent(tick=0, channel=0, data=[11, 127]),
  midi.ControlChangeEvent(tick=2, channel=0, data=[11, 122]),
  midi.ControlChangeEvent(tick=4, channel=0, data=[11, 118]),
  midi.NoteOffEvent(tick=3, channel=0, data=[85, 0]),
  midi.NoteOnEvent(tick=9, channel=9, data=[59, 100]),
  midi.NoteOnEvent(tick=22, channel=0, data=[85, 127]),
  midi.PitchWheelEvent(tick=0, channel=0, data=[10, 63]),
  midi.ControlChangeEvent(tick=0, channel=0, data=[11, 127]),
  midi.NoteOffEvent(tick=1, channel=0, data=[85, 0]),
  midi.NoteOnEvent(tick=0, channel=0, data=[85, 127]),
  midi.PitchWheelEvent(tick=0, channel=0, data=[10, 63]),
  midi.ControlChangeEvent(tick=0, channel=0, data=[11, 122]),
  midi.NoteOffEvent(tick=1, channel=0, data=[85, 0]),
  midi.NoteOnEvent(tick=0, channel=0, data=[85, 127]),
  midi.PitchWheelEvent(tick=0, channel=0, data=[10, 63]),
  midi.ControlChangeEvent(tick=0, channel=0, data=[11, 127]),
  midi.NoteOffEvent(tick=1, channel=9, data=[59, 0]),
  midi.NoteOffEvent(tick=1, channel=0, data=[85, 0]),
  midi.NoteOnEvent(tick=0, channel=0, data=[85, 127]),
  midi.PitchWheelEvent(tick=0, channel=0, data=[10, 63]),
  midi.ControlChangeEvent(tick=0, channel=0, data=[11, 127]),
  midi.ControlChangeEvent(tick=1, channel=0, data=[11, 122]),
  midi.ControlChangeEvent(tick=4, channel=0, data=[11, 118]),
  midi.NoteOffEvent(tick=4, channel=0, data=[85, 0]),
  midi.NoteOnEvent(tick=20, channel=9, data=[59, 100]),
  midi.NoteOnEvent(tick=99, channel=0, data=[85, 127]),
  midi.PitchWheelEvent(tick=0, channel=0, data=[10, 63]),
  midi.ControlChangeEvent(tick=0, channel=0, data=[11, 122]),
  midi.NoteOffEvent(tick=1, channel=0, data=[85, 0]),
  midi.NoteOnEvent(tick=0, channel=0, data=[85, 127]),
  midi.PitchWheelEvent(tick=0, channel=0, data=[10, 63]),
  midi.ControlChangeEvent(tick=0, channel=0, data=[11, 127]),
  midi.NoteOffEvent(tick=1, channel=0, data=[85, 0]),
  midi.NoteOnEvent(tick=0, channel=0, data=[85, 127]),
  midi.PitchWheelEvent(tick=0, channel=0, data=[10, 63]),
  midi.ControlChangeEvent(tick=0, channel=0, data=[11, 127]),
  midi.NoteOffEvent(tick=1, channel=9, data=[59, 0]),
  midi.NoteOffEvent(tick=1, channel=0, data=[85, 0]),
  midi.NoteOnEvent(tick=0, channel=0, data=[85, 127]),
  midi.PitchWheelEvent(tick=0, channel=0, data=[10, 63]),
  midi.ControlChangeEvent(tick=0, channel=0, data=[11, 122]),
  midi.ControlChangeEvent(tick=4, channel=0, data=[11, 118]),
  midi.ControlChangeEvent(tick=4, channel=0, data=[11, 113]),
  midi.NoteOffEvent(tick=1, channel=0, data=[85, 0]),
  midi.NoteOnEvent(tick=9, channel=9, data=[59, 100]),
  midi.NoteOnEvent(tick=66, channel=0, data=[85, 127]),
  midi.PitchWheelEvent(tick=0, channel=0, data=[10, 63]),
  midi.ControlChangeEvent(tick=0, channel=0, data=[11, 127]),
  midi.NoteOffEvent(tick=1, channel=0, data=[85, 0]),
  midi.NoteOnEvent(tick=0, channel=0, data=[85, 127]),
  midi.PitchWheelEvent(tick=0, channel=0, data=[10, 63]),
  midi.ControlChangeEvent(tick=0, channel=0, data=[11, 127]),
  midi.NoteOffEvent(tick=1, channel=0, data=[85, 0]),
  midi.NoteOnEvent(tick=0, channel=0, data=[85, 127]),
  midi.PitchWheelEvent(tick=0, channel=0, data=[10, 63]),
  midi.ControlChangeEvent(tick=0, channel=0, data=[11, 127]),
  midi.ControlChangeEvent(tick=1, channel=0, data=[11, 122]),
  midi.NoteOffEvent(tick=0, channel=9, data=[59, 0]),
  midi.NoteOffEvent(tick=1, channel=0, data=[85, 0]),
  midi.NoteOnEvent(tick=0, channel=0, data=[85, 127]),
  midi.PitchWheelEvent(tick=0, channel=0, data=[10, 63]),
  midi.ControlChangeEvent(tick=0, channel=0, data=[11, 127]),
  midi.ControlChangeEvent(tick=3, channel=0, data=[11, 122]),
  midi.ControlChangeEvent(tick=4, channel=0, data=[11, 118]),
  midi.NoteOffEvent(tick=2, channel=0, data=[85, 0]),
  midi.NoteOnEvent(tick=9, channel=9, data=[59, 100]),
  midi.NoteOnEvent(tick=22, channel=0, data=[85, 127]),
  midi.PitchWheelEvent(tick=0, channel=0, data=[10, 63]),
  midi.ControlChangeEvent(tick=0, channel=0, data=[11, 127]),
  midi.NoteOffEvent(tick=1, channel=0, data=[85, 0]),
  midi.NoteOnEvent(tick=0, channel=0, data=[85, 127]),
  midi.PitchWheelEvent(tick=0, channel=0, data=[10, 63]),
  midi.ControlChangeEvent(tick=0, channel=0, data=[11, 127]),
  midi.NoteOffEvent(tick=1, channel=0, data=[85, 0]),
  midi.NoteOnEvent(tick=0, channel=0, data=[85, 127]),
  midi.PitchWheelEvent(tick=0, channel=0, data=[10, 63]),
  midi.ControlChangeEvent(tick=0, channel=0, data=[11, 122]),
  midi.NoteOffEvent(tick=1, channel=9, data=[59, 0]),
  midi.NoteOffEvent(tick=1, channel=0, data=[85, 0]),
  midi.NoteOnEvent(tick=0, channel=0, data=[85, 127]),
  midi.PitchWheelEvent(tick=0, channel=0, data=[10, 63]),
  midi.ControlChangeEvent(tick=0, channel=0, data=[11, 127]),
  midi.ControlChangeEvent(tick=2, channel=0, data=[11, 122]),
  midi.ControlChangeEvent(tick=4, channel=0, data=[11, 118]),
  midi.NoteOffEvent(tick=3, channel=0, data=[85, 0]),
  midi.NoteOnEvent(tick=9, channel=9, data=[59, 100]),
  midi.NoteOnEvent(tick=22, channel=0, data=[85, 127]),
  midi.PitchWheelEvent(tick=0, channel=0, data=[10, 63]),
  midi.ControlChangeEvent(tick=0, channel=0, data=[11, 127]),
  midi.NoteOffEvent(tick=1, channel=0, data=[85, 0]),
  midi.NoteOnEvent(tick=0, channel=0, data=[85, 127]),
  midi.PitchWheelEvent(tick=0, channel=0, data=[10, 63]),
  midi.ControlChangeEvent(tick=0, channel=0, data=[11, 122]),
  midi.NoteOffEvent(tick=1, channel=0, data=[85, 0]),
  midi.NoteOnEvent(tick=0, channel=0, data=[85, 127]),
  midi.PitchWheelEvent(tick=0, channel=0, data=[10, 63]),
  midi.ControlChangeEvent(tick=0, channel=0, data=[11, 127]),
  midi.NoteOffEvent(tick=1, channel=9, data=[59, 0]),
  midi.NoteOffEvent(tick=1, channel=0, data=[85, 0]),
  midi.NoteOnEvent(tick=0, channel=0, data=[85, 127]),
  midi.PitchWheelEvent(tick=0, channel=0, data=[10, 63]),
  midi.ControlChangeEvent(tick=0, channel=0, data=[11, 127]),
  midi.ControlChangeEvent(tick=1, channel=0, data=[11, 122]),
  midi.ControlChangeEvent(tick=4, channel=0, data=[11, 118]),
  midi.NoteOffEvent(tick=4, channel=0, data=[85, 0]),
  midi.NoteOnEvent(tick=9, channel=9, data=[59, 100]),
  midi.NoteOnEvent(tick=22, channel=0, data=[85, 127]),
  midi.PitchWheelEvent(tick=0, channel=0, data=[10, 63]),
  midi.ControlChangeEvent(tick=0, channel=0, data=[11, 122]),
  midi.NoteOffEvent(tick=1, channel=0, data=[85, 0]),
  midi.NoteOnEvent(tick=0, channel=0, data=[85, 127]),
  midi.PitchWheelEvent(tick=0, channel=0, data=[10, 63]),
  midi.ControlChangeEvent(tick=0, channel=0, data=[11, 127]),
  midi.NoteOffEvent(tick=1, channel=0, data=[85, 0]),
  midi.NoteOnEvent(tick=0, channel=0, data=[85, 127]),
  midi.PitchWheelEvent(tick=0, channel=0, data=[10, 63]),
  midi.ControlChangeEvent(tick=0, channel=0, data=[11, 127]),
  midi.NoteOffEvent(tick=1, channel=9, data=[59, 0]),
  midi.NoteOffEvent(tick=1, channel=0, data=[85, 0]),
  midi.NoteOnEvent(tick=0, channel=0, data=[85, 127]),
  midi.PitchWheelEvent(tick=0, channel=0, data=[10, 63]),
  midi.ControlChangeEvent(tick=0, channel=0, data=[11, 122]),
  midi.ControlChangeEvent(tick=4, channel=0, data=[11, 118]),
  midi.ControlChangeEvent(tick=4, channel=0, data=[11, 113]),
  midi.NoteOffEvent(tick=1, channel=0, data=[85, 0]),
  midi.NoteOnEvent(tick=20, channel=9, data=[59, 100]),
  midi.NoteOnEvent(tick=33, channel=0, data=[85, 127]),
  midi.PitchWheelEvent(tick=0, channel=0, data=[10, 63]),
  midi.ControlChangeEvent(tick=0, channel=0, data=[11, 127]),
  midi.NoteOffEvent(tick=1, channel=0, data=[85, 0]),
  midi.NoteOnEvent(tick=0, channel=0, data=[85, 127]),
  midi.PitchWheelEvent(tick=0, channel=0, data=[10, 63]),
  midi.ControlChangeEvent(tick=0, channel=0, data=[11, 127]),
  midi.NoteOffEvent(tick=1, channel=0, data=[85, 0]),
  midi.NoteOnEvent(tick=0, channel=0, data=[85, 127]),
  midi.PitchWheelEvent(tick=0, channel=0, data=[10, 63]),
  midi.ControlChangeEvent(tick=0, channel=0, data=[11, 127]),
  midi.ControlChangeEvent(tick=1, channel=0, data=[11, 122]),
  midi.NoteOffEvent(tick=1, channel=0, data=[85, 0]),
  midi.NoteOnEvent(tick=0, channel=0, data=[85, 127]),
  midi.PitchWheelEvent(tick=0, channel=0, data=[10, 63]),
  midi.ControlChangeEvent(tick=0, channel=0, data=[11, 127]),
  midi.ControlChangeEvent(tick=3, channel=0, data=[11, 122]),
  midi.ControlChangeEvent(tick=4, channel=0, data=[11, 118]),
  midi.NoteOffEvent(tick=2, channel=0, data=[85, 0]),
  midi.NoteOffEvent(tick=1, channel=9, data=[59, 0]),
  midi.NoteOnEvent(tick=8, channel=0, data=[85, 127]),
  midi.PitchWheelEvent(tick=0, channel=0, data=[10, 63]),
  midi.ControlChangeEvent(tick=0, channel=0, data=[11, 127]),
  midi.NoteOffEvent(tick=1, channel=0, data=[85, 0]),
  midi.NoteOnEvent(tick=0, channel=0, data=[85, 127]),
  midi.PitchWheelEvent(tick=0, channel=0, data=[10, 63]),
  midi.ControlChangeEvent(tick=0, channel=0, data=[11, 127]),
  midi.NoteOffEvent(tick=1, channel=0, data=[85, 0]),
  midi.NoteOnEvent(tick=0, channel=0, data=[85, 127]),
  midi.PitchWheelEvent(tick=0, channel=0, data=[10, 63]),
  midi.ControlChangeEvent(tick=0, channel=0, data=[11, 122]),
  midi.NoteOffEvent(tick=2, channel=0, data=[85, 0]),
  midi.NoteOnEvent(tick=0, channel=0, data=[85, 127]),
  midi.PitchWheelEvent(tick=0, channel=0, data=[10, 63]),
  midi.ControlChangeEvent(tick=0, channel=0, data=[11, 127]),
  midi.ControlChangeEvent(tick=2, channel=0, data=[11, 122]),
  midi.ControlChangeEvent(tick=4, channel=0, data=[11, 118]),
  midi.NoteOffEvent(tick=3, channel=0, data=[85, 0]),
  midi.NoteOnEvent(tick=9, channel=0, data=[85, 127]),
  midi.PitchWheelEvent(tick=0, channel=0, data=[10, 63]),
  midi.ControlChangeEvent(tick=0, channel=0, data=[11, 127]),
  midi.NoteOffEvent(tick=1, channel=0, data=[85, 0]),
  midi.NoteOnEvent(tick=0, channel=0, data=[85, 127]),
  midi.PitchWheelEvent(tick=0, channel=0, data=[10, 63]),
  midi.ControlChangeEvent(tick=0, channel=0, data=[11, 122]),
  midi.NoteOffEvent(tick=1, channel=0, data=[85, 0]),
  midi.NoteOnEvent(tick=0, channel=0, data=[85, 127]),
  midi.PitchWheelEvent(tick=0, channel=0, data=[10, 63]),
  midi.ControlChangeEvent(tick=0, channel=0, data=[11, 127]),
  midi.NoteOffEvent(tick=2, channel=0, data=[85, 0]),
  midi.NoteOnEvent(tick=0, channel=0, data=[85, 127]),
  midi.PitchWheelEvent(tick=0, channel=0, data=[10, 63]),
  midi.ControlChangeEvent(tick=0, channel=0, data=[11, 127]),
  midi.ControlChangeEvent(tick=1, channel=0, data=[11, 122]),
  midi.ControlChangeEvent(tick=4, channel=0, data=[11, 118]),
  midi.NoteOffEvent(tick=2, channel=0, data=[85, 0]),
  midi.NoteOnEvent(tick=0, channel=0, data=[85, 127]),
  midi.PitchWheelEvent(tick=0, channel=0, data=[10, 63]),
  midi.ControlChangeEvent(tick=0, channel=0, data=[11, 127]),
  midi.NoteOffEvent(tick=1, channel=0, data=[85, 0]),
  midi.NoteOnEvent(tick=0, channel=0, data=[85, 127]),
  midi.PitchWheelEvent(tick=0, channel=0, data=[10, 63]),
  midi.ControlChangeEvent(tick=0, channel=0, data=[11, 127]),
  midi.NoteOffEvent(tick=1, channel=0, data=[85, 0]),
  midi.NoteOnEvent(tick=0, channel=0, data=[85, 127]),
  midi.PitchWheelEvent(tick=0, channel=0, data=[10, 63]),
  midi.ControlChangeEvent(tick=0, channel=0, data=[11, 122]),
  midi.NoteOffEvent(tick=2, channel=0, data=[85, 0]),
  midi.NoteOnEvent(tick=0, channel=0, data=[85, 127]),
  midi.PitchWheelEvent(tick=0, channel=0, data=[10, 63]),
  midi.ControlChangeEvent(tick=0, channel=0, data=[11, 127]),
  midi.ControlChangeEvent(tick=2, channel=0, data=[11, 122]),
  midi.ControlChangeEvent(tick=4, channel=0, data=[11, 118]),
  midi.NoteOffEvent(tick=3, channel=0, data=[85, 0]),
  midi.NoteOnEvent(tick=9, channel=0, data=[85, 127]),
  midi.PitchWheelEvent(tick=0, channel=0, data=[10, 63]),
  midi.ControlChangeEvent(tick=0, channel=0, data=[11, 127]),
  midi.NoteOffEvent(tick=1, channel=0, data=[85, 0]),
  midi.NoteOnEvent(tick=0, channel=0, data=[85, 127]),
  midi.PitchWheelEvent(tick=0, channel=0, data=[10, 63]),
  midi.ControlChangeEvent(tick=0, channel=0, data=[11, 122]),
  midi.NoteOffEvent(tick=1, channel=0, data=[85, 0]),
  midi.NoteOnEvent(tick=0, channel=0, data=[85, 127]),
  midi.PitchWheelEvent(tick=0, channel=0, data=[10, 63]),
  midi.ControlChangeEvent(tick=0, channel=0, data=[11, 127]),
  midi.NoteOffEvent(tick=2, channel=0, data=[85, 0]),
  midi.NoteOnEvent(tick=0, channel=0, data=[85, 127]),
  midi.PitchWheelEvent(tick=0, channel=0, data=[10, 63]),
  midi.ControlChangeEvent(tick=0, channel=0, data=[11, 127]),
  midi.ControlChangeEvent(tick=1, channel=0, data=[11, 122]),
  midi.ControlChangeEvent(tick=4, channel=0, data=[11, 118]),
  midi.NoteOffEvent(tick=2, channel=0, data=[85, 0]),
  midi.NoteOnEvent(tick=0, channel=0, data=[85, 127]),
  midi.PitchWheelEvent(tick=0, channel=0, data=[10, 63]),
  midi.ControlChangeEvent(tick=0, channel=0, data=[11, 127]),
  midi.NoteOffEvent(tick=1, channel=0, data=[85, 0]),
  midi.NoteOnEvent(tick=0, channel=0, data=[85, 127]),
  midi.PitchWheelEvent(tick=0, channel=0, data=[10, 63]),
  midi.ControlChangeEvent(tick=0, channel=0, data=[11, 127]),
  midi.NoteOffEvent(tick=1, channel=0, data=[85, 0]),
  midi.NoteOnEvent(tick=0, channel=0, data=[85, 127]),
  midi.PitchWheelEvent(tick=0, channel=0, data=[10, 63]),
  midi.ControlChangeEvent(tick=0, channel=0, data=[11, 122]),
  midi.NoteOffEvent(tick=2, channel=0, data=[85, 0]),
  midi.NoteOnEvent(tick=0, channel=0, data=[85, 127]),
  midi.PitchWheelEvent(tick=0, channel=0, data=[10, 63]),
  midi.ControlChangeEvent(tick=0, channel=0, data=[11, 127]),
  midi.ControlChangeEvent(tick=2, channel=0, data=[11, 122]),
  midi.ControlChangeEvent(tick=4, channel=0, data=[11, 118]),
  midi.NoteOffEvent(tick=1, channel=0, data=[85, 0]),
  midi.NoteOnEvent(tick=0, channel=0, data=[85, 127]),
  midi.PitchWheelEvent(tick=0, channel=0, data=[10, 63]),
  midi.ControlChangeEvent(tick=0, channel=0, data=[11, 127]),
  midi.NoteOffEvent(tick=1, channel=0, data=[85, 0]),
  midi.NoteOnEvent(tick=0, channel=0, data=[85, 127]),
  midi.PitchWheelEvent(tick=0, channel=0, data=[10, 63]),
  midi.ControlChangeEvent(tick=0, channel=0, data=[11, 127]),
  midi.NoteOffEvent(tick=1, channel=0, data=[85, 0]),
  midi.NoteOnEvent(tick=0, channel=0, data=[85, 127]),
  midi.PitchWheelEvent(tick=0, channel=0, data=[10, 63]),
  midi.ControlChangeEvent(tick=0, channel=0, data=[11, 127]),
  midi.ControlChangeEvent(tick=1, channel=0, data=[11, 122]),
  midi.NoteOffEvent(tick=1, channel=0, data=[85, 0]),
  midi.NoteOnEvent(tick=0, channel=0, data=[85, 127]),
  midi.PitchWheelEvent(tick=0, channel=0, data=[10, 63]),
  midi.ControlChangeEvent(tick=0, channel=0, data=[11, 127]),
  midi.ControlChangeEvent(tick=3, channel=0, data=[11, 122]),
  midi.NoteOffEvent(tick=4, channel=0, data=[85, 0]),
  midi.NoteOnEvent(tick=0, channel=0, data=[85, 127]),
  midi.PitchWheelEvent(tick=0, channel=0, data=[10, 63]),
  midi.ControlChangeEvent(tick=0, channel=0, data=[11, 122]),
  midi.NoteOffEvent(tick=1, channel=0, data=[85, 0]),
  midi.NoteOnEvent(tick=0, channel=0, data=[85, 127]),
  midi.PitchWheelEvent(tick=0, channel=0, data=[10, 63]),
  midi.ControlChangeEvent(tick=0, channel=0, data=[11, 127]),
  midi.NoteOffEvent(tick=1, channel=0, data=[85, 0]),
  midi.NoteOnEvent(tick=0, channel=0, data=[85, 127]),
  midi.PitchWheelEvent(tick=0, channel=0, data=[10, 63]),
  midi.ControlChangeEvent(tick=0, channel=0, data=[11, 127]),
  midi.NoteOffEvent(tick=2, channel=0, data=[85, 0]),
  midi.NoteOnEvent(tick=0, channel=0, data=[85, 127]),
  midi.PitchWheelEvent(tick=0, channel=0, data=[10, 63]),
  midi.ControlChangeEvent(tick=0, channel=0, data=[11, 122]),
  midi.ControlChangeEvent(tick=4, channel=0, data=[11, 118]),
  midi.NoteOffEvent(tick=3, channel=0, data=[85, 0]),
  midi.NoteOnEvent(tick=0, channel=0, data=[85, 127]),
  midi.PitchWheelEvent(tick=0, channel=0, data=[10, 63]),
  midi.ControlChangeEvent(tick=0, channel=0, data=[11, 127]),
  midi.NoteOffEvent(tick=1, channel=0, data=[85, 0]),
  midi.NoteOnEvent(tick=0, channel=0, data=[85, 127]),
  midi.PitchWheelEvent(tick=0, channel=0, data=[10, 63]),
  midi.ControlChangeEvent(tick=0, channel=0, data=[11, 122]),
  midi.NoteOffEvent(tick=1, channel=0, data=[85, 0]),
  midi.NoteOnEvent(tick=0, channel=0, data=[85, 127]),
  midi.PitchWheelEvent(tick=0, channel=0, data=[10, 63]),
  midi.ControlChangeEvent(tick=0, channel=0, data=[11, 127]),
  midi.NoteOffEvent(tick=2, channel=0, data=[85, 0]),
  midi.NoteOnEvent(tick=0, channel=0, data=[85, 127]),
  midi.PitchWheelEvent(tick=0, channel=0, data=[10, 63]),
  midi.ControlChangeEvent(tick=0, channel=0, data=[11, 127]),
  midi.ControlChangeEvent(tick=1, channel=0, data=[11, 122]),
  midi.ControlChangeEvent(tick=4, channel=0, data=[11, 118]),
  midi.NoteOffEvent(tick=2, channel=0, data=[85, 0]),
  midi.NoteOnEvent(tick=0, channel=0, data=[85, 127]),
  midi.PitchWheelEvent(tick=0, channel=0, data=[10, 63]),
  midi.ControlChangeEvent(tick=0, channel=0, data=[11, 127]),
  midi.NoteOffEvent(tick=1, channel=0, data=[85, 0]),
  midi.NoteOnEvent(tick=0, channel=0, data=[85, 127]),
  midi.PitchWheelEvent(tick=0, channel=0, data=[10, 63]),
  midi.ControlChangeEvent(tick=0, channel=0, data=[11, 127]),
  midi.NoteOffEvent(tick=1, channel=0, data=[85, 0]),
  midi.NoteOnEvent(tick=0, channel=0, data=[85, 127]),
  midi.PitchWheelEvent(tick=0, channel=0, data=[10, 63]),
  midi.ControlChangeEvent(tick=0, channel=0, data=[11, 122]),
  midi.NoteOffEvent(tick=2, channel=0, data=[85, 0]),
  midi.NoteOnEvent(tick=0, channel=0, data=[85, 127]),
  midi.PitchWheelEvent(tick=0, channel=0, data=[10, 63]),
  midi.ControlChangeEvent(tick=0, channel=0, data=[11, 127]),
  midi.ControlChangeEvent(tick=2, channel=0, data=[11, 122]),
  midi.ControlChangeEvent(tick=4, channel=0, data=[11, 118]),
  midi.NoteOffEvent(tick=3, channel=0, data=[85, 0]),
  midi.NoteOnEvent(tick=31, channel=9, data=[59, 100]),
  midi.NoteOffEvent(tick=58, channel=9, data=[59, 0]),
  midi.NoteOnEvent(tick=8, channel=0, data=[85, 127]),
  midi.PitchWheelEvent(tick=0, channel=0, data=[10, 63]),
  midi.ControlChangeEvent(tick=0, channel=0, data=[11, 127]),
  midi.NoteOffEvent(tick=1, channel=0, data=[85, 0]),
  midi.NoteOnEvent(tick=0, channel=0, data=[85, 127]),
  midi.PitchWheelEvent(tick=0, channel=0, data=[10, 63]),
  midi.ControlChangeEvent(tick=0, channel=0, data=[11, 122]),
  midi.NoteOffEvent(tick=1, channel=0, data=[85, 0]),
  midi.NoteOnEvent(tick=0, channel=0, data=[85, 127]),
  midi.PitchWheelEvent(tick=0, channel=0, data=[10, 63]),
  midi.ControlChangeEvent(tick=0, channel=0, data=[11, 127]),
  midi.NoteOffEvent(tick=2, channel=0, data=[85, 0]),
  midi.NoteOnEvent(tick=0, channel=0, data=[85, 127]),
  midi.PitchWheelEvent(tick=0, channel=0, data=[10, 63]),
  midi.ControlChangeEvent(tick=0, channel=0, data=[11, 127]),
  midi.ControlChangeEvent(tick=1, channel=0, data=[11, 122]),
  midi.ControlChangeEvent(tick=4, channel=0, data=[11, 118]),
  midi.NoteOffEvent(tick=4, channel=0, data=[85, 0]),
  midi.NoteOnEvent(tick=9, channel=9, data=[59, 100]),
  midi.NoteOffEvent(tick=58, channel=9, data=[59, 0]),
  midi.NoteOnEvent(tick=8, channel=0, data=[85, 127]),
  midi.PitchWheelEvent(tick=0, channel=0, data=[10, 63]),
  midi.ControlChangeEvent(tick=0, channel=0, data=[11, 122]),
  midi.NoteOffEvent(tick=1, channel=0, data=[85, 0]),
  midi.NoteOnEvent(tick=0, channel=0, data=[85, 127]),
  midi.PitchWheelEvent(tick=0, channel=0, data=[10, 63]),
  midi.ControlChangeEvent(tick=0, channel=0, data=[11, 127]),
  midi.NoteOffEvent(tick=1, channel=0, data=[85, 0]),
  midi.NoteOnEvent(tick=0, channel=0, data=[85, 127]),
  midi.PitchWheelEvent(tick=0, channel=0, data=[10, 63]),
  midi.ControlChangeEvent(tick=0, channel=0, data=[11, 127]),
  midi.NoteOffEvent(tick=2, channel=0, data=[85, 0]),
  midi.NoteOnEvent(tick=0, channel=0, data=[85, 127]),
  midi.PitchWheelEvent(tick=0, channel=0, data=[10, 63]),
  midi.ControlChangeEvent(tick=0, channel=0, data=[11, 122]),
  midi.ControlChangeEvent(tick=4, channel=0, data=[11, 118]),
  midi.ControlChangeEvent(tick=4, channel=0, data=[11, 113]),
  midi.NoteOffEvent(tick=1, channel=0, data=[85, 0]),
  midi.NoteOnEvent(tick=9, channel=9, data=[59, 100]),
  midi.NoteOnEvent(tick=22, channel=0, data=[85, 127]),
  midi.PitchWheelEvent(tick=0, channel=0, data=[10, 63]),
  midi.ControlChangeEvent(tick=0, channel=0, data=[11, 127]),
  midi.NoteOffEvent(tick=1, channel=0, data=[85, 0]),
  midi.NoteOnEvent(tick=0, channel=0, data=[85, 127]),
  midi.PitchWheelEvent(tick=0, channel=0, data=[10, 63]),
  midi.ControlChangeEvent(tick=0, channel=0, data=[11, 127]),
  midi.NoteOffEvent(tick=1, channel=0, data=[85, 0]),
  midi.NoteOnEvent(tick=0, channel=0, data=[85, 127]),
  midi.PitchWheelEvent(tick=0, channel=0, data=[10, 63]),
  midi.ControlChangeEvent(tick=0, channel=0, data=[11, 127]),
  midi.ControlChangeEvent(tick=1, channel=0, data=[11, 122]),
  midi.NoteOffEvent(tick=0, channel=9, data=[59, 0]),
  midi.NoteOffEvent(tick=1, channel=0, data=[85, 0]),
  midi.NoteOnEvent(tick=0, channel=0, data=[85, 127]),
  midi.PitchWheelEvent(tick=0, channel=0, data=[10, 63]),
  midi.ControlChangeEvent(tick=0, channel=0, data=[11, 127]),
  midi.ControlChangeEvent(tick=3, channel=0, data=[11, 122]),
  midi.ControlChangeEvent(tick=4, channel=0, data=[11, 118]),
  midi.NoteOffEvent(tick=2, channel=0, data=[85, 0]),
  midi.NoteOnEvent(tick=9, channel=9, data=[59, 100]),
  midi.NoteOnEvent(tick=22, channel=0, data=[85, 127]),
  midi.PitchWheelEvent(tick=0, channel=0, data=[10, 63]),
  midi.ControlChangeEvent(tick=0, channel=0, data=[11, 127]),
  midi.NoteOffEvent(tick=1, channel=0, data=[85, 0]),
  midi.NoteOnEvent(tick=0, channel=0, data=[85, 127]),
  midi.PitchWheelEvent(tick=0, channel=0, data=[10, 63]),
  midi.ControlChangeEvent(tick=0, channel=0, data=[11, 127]),
  midi.NoteOffEvent(tick=1, channel=0, data=[85, 0]),
  midi.NoteOnEvent(tick=0, channel=0, data=[85, 127]),
  midi.PitchWheelEvent(tick=0, channel=0, data=[10, 63]),
  midi.ControlChangeEvent(tick=0, channel=0, data=[11, 122]),
  midi.NoteOffEvent(tick=1, channel=9, data=[59, 0]),
  midi.NoteOffEvent(tick=1, channel=0, data=[85, 0]),
  midi.NoteOnEvent(tick=0, channel=0, data=[85, 127]),
  midi.PitchWheelEvent(tick=0, channel=0, data=[10, 63]),
  midi.ControlChangeEvent(tick=0, channel=0, data=[11, 127]),
  midi.ControlChangeEvent(tick=2, channel=0, data=[11, 122]),
  midi.ControlChangeEvent(tick=4, channel=0, data=[11, 118]),
  midi.NoteOffEvent(tick=3, channel=0, data=[85, 0]),
  midi.NoteOnEvent(tick=9, channel=9, data=[59, 100]),
  midi.NoteOnEvent(tick=22, channel=0, data=[85, 127]),
  midi.PitchWheelEvent(tick=0, channel=0, data=[10, 63]),
  midi.ControlChangeEvent(tick=0, channel=0, data=[11, 127]),
  midi.NoteOffEvent(tick=1, channel=0, data=[85, 0]),
  midi.NoteOnEvent(tick=0, channel=0, data=[85, 127]),
  midi.PitchWheelEvent(tick=0, channel=0, data=[10, 63]),
  midi.ControlChangeEvent(tick=0, channel=0, data=[11, 122]),
  midi.NoteOffEvent(tick=1, channel=0, data=[85, 0]),
  midi.NoteOnEvent(tick=0, channel=0, data=[85, 127]),
  midi.PitchWheelEvent(tick=0, channel=0, data=[10, 63]),
  midi.ControlChangeEvent(tick=0, channel=0, data=[11, 127]),
  midi.NoteOffEvent(tick=1, channel=9, data=[59, 0]),
  midi.NoteOffEvent(tick=1, channel=0, data=[85, 0]),
  midi.NoteOnEvent(tick=0, channel=0, data=[85, 127]),
  midi.PitchWheelEvent(tick=0, channel=0, data=[10, 63]),
  midi.ControlChangeEvent(tick=0, channel=0, data=[11, 127]),
  midi.ControlChangeEvent(tick=1, channel=0, data=[11, 122]),
  midi.ControlChangeEvent(tick=4, channel=0, data=[11, 118]),
  midi.NoteOffEvent(tick=4, channel=0, data=[85, 0]),
  midi.NoteOnEvent(tick=20, channel=9, data=[59, 100]),
  midi.NoteOnEvent(tick=99, channel=0, data=[85, 127]),
  midi.PitchWheelEvent(tick=0, channel=0, data=[10, 63]),
  midi.ControlChangeEvent(tick=0, channel=0, data=[11, 122]),
  midi.NoteOffEvent(tick=1, channel=0, data=[85, 0]),
  midi.NoteOnEvent(tick=0, channel=0, data=[85, 127]),
  midi.PitchWheelEvent(tick=0, channel=0, data=[10, 63]),
  midi.ControlChangeEvent(tick=0, channel=0, data=[11, 127]),
  midi.NoteOffEvent(tick=1, channel=0, data=[85, 0]),
  midi.NoteOnEvent(tick=0, channel=0, data=[85, 127]),
  midi.PitchWheelEvent(tick=0, channel=0, data=[10, 63]),
  midi.ControlChangeEvent(tick=0, channel=0, data=[11, 127]),
  midi.NoteOffEvent(tick=1, channel=9, data=[59, 0]),
  midi.NoteOffEvent(tick=1, channel=0, data=[85, 0]),
  midi.NoteOnEvent(tick=0, channel=0, data=[85, 127]),
  midi.PitchWheelEvent(tick=0, channel=0, data=[10, 63]),
  midi.ControlChangeEvent(tick=0, channel=0, data=[11, 122]),
  midi.ControlChangeEvent(tick=4, channel=0, data=[11, 118]),
  midi.ControlChangeEvent(tick=4, channel=0, data=[11, 113]),
  midi.NoteOffEvent(tick=1, channel=0, data=[85, 0]),
  midi.NoteOnEvent(tick=9, channel=9, data=[59, 100]),
  midi.ControlChangeEvent(tick=12, channel=0, data=[7, 122]),
  midi.ControlChangeEvent(tick=0, channel=1, data=[7, 122]),
  midi.ControlChangeEvent(tick=0, channel=2, data=[7, 122]),
  midi.ControlChangeEvent(tick=0, channel=3, data=[7, 96]),
  midi.ControlChangeEvent(tick=0, channel=4, data=[7, 96]),
  midi.ControlChangeEvent(tick=0, channel=5, data=[7, 122]),
  midi.ControlChangeEvent(tick=0, channel=6, data=[7, 122]),
  midi.ControlChangeEvent(tick=0, channel=7, data=[7, 122]),
  midi.ControlChangeEvent(tick=0, channel=8, data=[7, 122]),
  midi.ControlChangeEvent(tick=0, channel=9, data=[7, 122]),
  midi.ControlChangeEvent(tick=0, channel=10, data=[7, 122]),
  midi.ControlChangeEvent(tick=0, channel=11, data=[7, 122]),
  midi.ControlChangeEvent(tick=0, channel=12, data=[7, 122]),
  midi.ControlChangeEvent(tick=0, channel=13, data=[7, 122]),
  midi.ControlChangeEvent(tick=0, channel=14, data=[7, 122]),
  midi.ControlChangeEvent(tick=0, channel=15, data=[7, 122]),
  midi.ControlChangeEvent(tick=10, channel=0, data=[7, 118]),
  midi.ControlChangeEvent(tick=0, channel=1, data=[7, 118]),
  midi.ControlChangeEvent(tick=0, channel=2, data=[7, 118]),
  midi.ControlChangeEvent(tick=0, channel=3, data=[7, 93]),
  midi.ControlChangeEvent(tick=0, channel=4, data=[7, 93]),
  midi.ControlChangeEvent(tick=0, channel=5, data=[7, 118]),
  midi.ControlChangeEvent(tick=0, channel=6, data=[7, 118]),
  midi.ControlChangeEvent(tick=0, channel=7, data=[7, 118]),
  midi.ControlChangeEvent(tick=0, channel=8, data=[7, 118]),
  midi.ControlChangeEvent(tick=0, channel=9, data=[7, 118]),
  midi.ControlChangeEvent(tick=0, channel=10, data=[7, 118]),
  midi.ControlChangeEvent(tick=0, channel=11, data=[7, 118]),
  midi.ControlChangeEvent(tick=0, channel=12, data=[7, 118]),
  midi.ControlChangeEvent(tick=0, channel=13, data=[7, 118]),
  midi.ControlChangeEvent(tick=0, channel=14, data=[7, 118]),
  midi.ControlChangeEvent(tick=0, channel=15, data=[7, 118]),
  midi.ControlChangeEvent(tick=10, channel=0, data=[7, 114]),
  midi.ControlChangeEvent(tick=0, channel=1, data=[7, 114]),
  midi.ControlChangeEvent(tick=0, channel=2, data=[7, 114]),
  midi.ControlChangeEvent(tick=0, channel=3, data=[7, 90]),
  midi.ControlChangeEvent(tick=0, channel=4, data=[7, 90]),
  midi.ControlChangeEvent(tick=0, channel=5, data=[7, 114]),
  midi.ControlChangeEvent(tick=0, channel=6, data=[7, 114]),
  midi.ControlChangeEvent(tick=0, channel=7, data=[7, 114]),
  midi.ControlChangeEvent(tick=0, channel=8, data=[7, 114]),
  midi.ControlChangeEvent(tick=0, channel=9, data=[7, 114]),
  midi.ControlChangeEvent(tick=0, channel=10, data=[7, 114]),
  midi.ControlChangeEvent(tick=0, channel=11, data=[7, 114]),
  midi.ControlChangeEvent(tick=0, channel=12, data=[7, 114]),
  midi.ControlChangeEvent(tick=0, channel=13, data=[7, 114]),
  midi.ControlChangeEvent(tick=0, channel=14, data=[7, 114]),
  midi.ControlChangeEvent(tick=0, channel=15, data=[7, 114]),
  midi.ControlChangeEvent(tick=10, channel=0, data=[7, 110]),
  midi.ControlChangeEvent(tick=0, channel=1, data=[7, 110]),
  midi.ControlChangeEvent(tick=0, channel=2, data=[7, 110]),
  midi.ControlChangeEvent(tick=0, channel=3, data=[7, 86]),
  midi.ControlChangeEvent(tick=0, channel=4, data=[7, 86]),
  midi.ControlChangeEvent(tick=0, channel=5, data=[7, 110]),
  midi.ControlChangeEvent(tick=0, channel=6, data=[7, 110]),
  midi.ControlChangeEvent(tick=0, channel=7, data=[7, 110]),
  midi.ControlChangeEvent(tick=0, channel=8, data=[7, 110]),
  midi.ControlChangeEvent(tick=0, channel=9, data=[7, 110]),
  midi.ControlChangeEvent(tick=0, channel=10, data=[7, 110]),
  midi.ControlChangeEvent(tick=0, channel=11, data=[7, 110]),
  midi.ControlChangeEvent(tick=0, channel=12, data=[7, 110]),
  midi.ControlChangeEvent(tick=0, channel=13, data=[7, 110]),
  midi.ControlChangeEvent(tick=0, channel=14, data=[7, 110]),
  midi.ControlChangeEvent(tick=0, channel=15, data=[7, 110]),
  midi.ControlChangeEvent(tick=10, channel=0, data=[7, 105]),
  midi.ControlChangeEvent(tick=0, channel=1, data=[7, 105]),
  midi.ControlChangeEvent(tick=0, channel=2, data=[7, 105]),
  midi.ControlChangeEvent(tick=0, channel=3, data=[7, 83]),
  midi.ControlChangeEvent(tick=0, channel=4, data=[7, 83]),
  midi.ControlChangeEvent(tick=0, channel=5, data=[7, 105]),
  midi.ControlChangeEvent(tick=0, channel=6, data=[7, 105]),
  midi.ControlChangeEvent(tick=0, channel=7, data=[7, 105]),
  midi.ControlChangeEvent(tick=0, channel=8, data=[7, 105]),
  midi.ControlChangeEvent(tick=0, channel=9, data=[7, 105]),
  midi.ControlChangeEvent(tick=0, channel=10, data=[7, 105]),
  midi.ControlChangeEvent(tick=0, channel=11, data=[7, 105]),
  midi.ControlChangeEvent(tick=0, channel=12, data=[7, 105]),
  midi.ControlChangeEvent(tick=0, channel=13, data=[7, 105]),
  midi.ControlChangeEvent(tick=0, channel=14, data=[7, 105]),
  midi.ControlChangeEvent(tick=0, channel=15, data=[7, 105]),
  midi.ControlChangeEvent(tick=10, channel=0, data=[7, 101]),
  midi.ControlChangeEvent(tick=0, channel=1, data=[7, 101]),
  midi.ControlChangeEvent(tick=0, channel=2, data=[7, 101]),
  midi.ControlChangeEvent(tick=0, channel=3, data=[7, 80]),
  midi.ControlChangeEvent(tick=0, channel=4, data=[7, 80]),
  midi.ControlChangeEvent(tick=0, channel=5, data=[7, 101]),
  midi.ControlChangeEvent(tick=0, channel=6, data=[7, 101]),
  midi.ControlChangeEvent(tick=0, channel=7, data=[7, 101]),
  midi.ControlChangeEvent(tick=0, channel=8, data=[7, 101]),
  midi.ControlChangeEvent(tick=0, channel=9, data=[7, 101]),
  midi.ControlChangeEvent(tick=0, channel=10, data=[7, 101]),
  midi.ControlChangeEvent(tick=0, channel=11, data=[7, 101]),
  midi.ControlChangeEvent(tick=0, channel=12, data=[7, 101]),
  midi.ControlChangeEvent(tick=0, channel=13, data=[7, 101]),
  midi.ControlChangeEvent(tick=0, channel=14, data=[7, 101]),
  midi.ControlChangeEvent(tick=0, channel=15, data=[7, 101]),
  midi.NoteOnEvent(tick=4, channel=0, data=[85, 127]),
  midi.PitchWheelEvent(tick=0, channel=0, data=[10, 63]),
  midi.ControlChangeEvent(tick=0, channel=0, data=[11, 127]),
  midi.NoteOffEvent(tick=1, channel=0, data=[85, 0]),
  midi.NoteOnEvent(tick=0, channel=0, data=[85, 127]),
  midi.PitchWheelEvent(tick=0, channel=0, data=[10, 63]),
  midi.ControlChangeEvent(tick=0, channel=0, data=[11, 127]),
  midi.NoteOffEvent(tick=1, channel=0, data=[85, 0]),
  midi.NoteOnEvent(tick=0, channel=0, data=[85, 127]),
  midi.PitchWheelEvent(tick=0, channel=0, data=[10, 63]),
  midi.ControlChangeEvent(tick=0, channel=0, data=[11, 127]),
  midi.ControlChangeEvent(tick=1, channel=0, data=[11, 122]),
  midi.NoteOffEvent(tick=0, channel=9, data=[59, 0]),
  midi.NoteOffEvent(tick=1, channel=0, data=[85, 0]),
  midi.NoteOnEvent(tick=0, channel=0, data=[85, 127]),
  midi.PitchWheelEvent(tick=0, channel=0, data=[10, 63]),
  midi.ControlChangeEvent(tick=0, channel=0, data=[11, 127]),
  midi.ControlChangeEvent(tick=2, channel=0, data=[7, 97]),
  midi.ControlChangeEvent(tick=0, channel=1, data=[7, 97]),
  midi.ControlChangeEvent(tick=0, channel=2, data=[7, 97]),
  midi.ControlChangeEvent(tick=0, channel=3, data=[7, 76]),
  midi.ControlChangeEvent(tick=0, channel=4, data=[7, 76]),
  midi.ControlChangeEvent(tick=0, channel=5, data=[7, 97]),
  midi.ControlChangeEvent(tick=0, channel=6, data=[7, 97]),
  midi.ControlChangeEvent(tick=0, channel=7, data=[7, 97]),
  midi.ControlChangeEvent(tick=0, channel=8, data=[7, 97]),
  midi.ControlChangeEvent(tick=0, channel=9, data=[7, 97]),
  midi.ControlChangeEvent(tick=0, channel=10, data=[7, 97]),
  midi.ControlChangeEvent(tick=0, channel=11, data=[7, 97]),
  midi.ControlChangeEvent(tick=0, channel=12, data=[7, 97]),
  midi.ControlChangeEvent(tick=0, channel=13, data=[7, 97]),
  midi.ControlChangeEvent(tick=0, channel=14, data=[7, 97]),
  midi.ControlChangeEvent(tick=0, channel=15, data=[7, 97]),
  midi.ControlChangeEvent(tick=1, channel=0, data=[11, 122]),
  midi.ControlChangeEvent(tick=4, channel=0, data=[11, 118]),
  midi.NoteOffEvent(tick=2, channel=0, data=[85, 0]),
  midi.ControlChangeEvent(tick=3, channel=0, data=[7, 93]),
  midi.ControlChangeEvent(tick=0, channel=1, data=[7, 93]),
  midi.ControlChangeEvent(tick=0, channel=2, data=[7, 93]),
  midi.ControlChangeEvent(tick=0, channel=3, data=[7, 73]),
  midi.ControlChangeEvent(tick=0, channel=4, data=[7, 73]),
  midi.ControlChangeEvent(tick=0, channel=5, data=[7, 93]),
  midi.ControlChangeEvent(tick=0, channel=6, data=[7, 93]),
  midi.ControlChangeEvent(tick=0, channel=7, data=[7, 93]),
  midi.ControlChangeEvent(tick=0, channel=8, data=[7, 93]),
  midi.ControlChangeEvent(tick=0, channel=9, data=[7, 93]),
  midi.ControlChangeEvent(tick=0, channel=10, data=[7, 93]),
  midi.ControlChangeEvent(tick=0, channel=11, data=[7, 93]),
  midi.ControlChangeEvent(tick=0, channel=12, data=[7, 93]),
  midi.ControlChangeEvent(tick=0, channel=13, data=[7, 93]),
  midi.ControlChangeEvent(tick=0, channel=14, data=[7, 93]),
  midi.ControlChangeEvent(tick=0, channel=15, data=[7, 93]),
  midi.NoteOnEvent(tick=6, channel=9, data=[59, 100]),
  midi.ControlChangeEvent(tick=4, channel=0, data=[7, 88]),
  midi.ControlChangeEvent(tick=0, channel=1, data=[7, 88]),
  midi.ControlChangeEvent(tick=0, channel=2, data=[7, 88]),
  midi.ControlChangeEvent(tick=0, channel=3, data=[7, 70]),
  midi.ControlChangeEvent(tick=0, channel=4, data=[7, 70]),
  midi.ControlChangeEvent(tick=0, channel=5, data=[7, 88]),
  midi.ControlChangeEvent(tick=0, channel=6, data=[7, 88]),
  midi.ControlChangeEvent(tick=0, channel=7, data=[7, 88]),
  midi.ControlChangeEvent(tick=0, channel=8, data=[7, 88]),
  midi.ControlChangeEvent(tick=0, channel=9, data=[7, 88]),
  midi.ControlChangeEvent(tick=0, channel=10, data=[7, 88]),
  midi.ControlChangeEvent(tick=0, channel=11, data=[7, 88]),
  midi.ControlChangeEvent(tick=0, channel=12, data=[7, 88]),
  midi.ControlChangeEvent(tick=0, channel=13, data=[7, 88]),
  midi.ControlChangeEvent(tick=0, channel=14, data=[7, 88]),
  midi.ControlChangeEvent(tick=0, channel=15, data=[7, 88]),
  midi.ControlChangeEvent(tick=10, channel=0, data=[7, 84]),
  midi.ControlChangeEvent(tick=0, channel=1, data=[7, 84]),
  midi.ControlChangeEvent(tick=0, channel=2, data=[7, 84]),
  midi.ControlChangeEvent(tick=0, channel=3, data=[7, 66]),
  midi.ControlChangeEvent(tick=0, channel=4, data=[7, 66]),
  midi.ControlChangeEvent(tick=0, channel=5, data=[7, 84]),
  midi.ControlChangeEvent(tick=0, channel=6, data=[7, 84]),
  midi.ControlChangeEvent(tick=0, channel=7, data=[7, 84]),
  midi.ControlChangeEvent(tick=0, channel=8, data=[7, 84]),
  midi.ControlChangeEvent(tick=0, channel=9, data=[7, 84]),
  midi.ControlChangeEvent(tick=0, channel=10, data=[7, 84]),
  midi.ControlChangeEvent(tick=0, channel=11, data=[7, 84]),
  midi.ControlChangeEvent(tick=0, channel=12, data=[7, 84]),
  midi.ControlChangeEvent(tick=0, channel=13, data=[7, 84]),
  midi.ControlChangeEvent(tick=0, channel=14, data=[7, 84]),
  midi.ControlChangeEvent(tick=0, channel=15, data=[7, 84]),
  midi.NoteOnEvent(tick=8, channel=0, data=[85, 127]),
  midi.PitchWheelEvent(tick=0, channel=0, data=[10, 63]),
  midi.ControlChangeEvent(tick=0, channel=0, data=[11, 127]),
  midi.NoteOffEvent(tick=1, channel=0, data=[85, 0]),
  midi.NoteOnEvent(tick=0, channel=0, data=[85, 127]),
  midi.PitchWheelEvent(tick=0, channel=0, data=[10, 63]),
  midi.ControlChangeEvent(tick=0, channel=0, data=[11, 127]),
  midi.NoteOffEvent(tick=1, channel=0, data=[85, 0]),
  midi.NoteOnEvent(tick=0, channel=0, data=[85, 127]),
  midi.PitchWheelEvent(tick=0, channel=0, data=[10, 63]),
  midi.ControlChangeEvent(tick=0, channel=0, data=[11, 122]),
  midi.ControlChangeEvent(tick=0, channel=0, data=[7, 80]),
  midi.ControlChangeEvent(tick=0, channel=1, data=[7, 80]),
  midi.ControlChangeEvent(tick=0, channel=2, data=[7, 80]),
  midi.ControlChangeEvent(tick=0, channel=3, data=[7, 63]),
  midi.ControlChangeEvent(tick=0, channel=4, data=[7, 63]),
  midi.ControlChangeEvent(tick=0, channel=5, data=[7, 80]),
  midi.ControlChangeEvent(tick=0, channel=6, data=[7, 80]),
  midi.ControlChangeEvent(tick=0, channel=7, data=[7, 80]),
  midi.ControlChangeEvent(tick=0, channel=8, data=[7, 80]),
  midi.ControlChangeEvent(tick=0, channel=9, data=[7, 80]),
  midi.ControlChangeEvent(tick=0, channel=10, data=[7, 80]),
  midi.ControlChangeEvent(tick=0, channel=11, data=[7, 80]),
  midi.ControlChangeEvent(tick=0, channel=12, data=[7, 80]),
  midi.ControlChangeEvent(tick=0, channel=13, data=[7, 80]),
  midi.ControlChangeEvent(tick=0, channel=14, data=[7, 80]),
  midi.ControlChangeEvent(tick=0, channel=15, data=[7, 80]),
  midi.NoteOffEvent(tick=1, channel=9, data=[59, 0]),
  midi.NoteOffEvent(tick=1, channel=0, data=[85, 0]),
  midi.NoteOnEvent(tick=0, channel=0, data=[85, 127]),
  midi.PitchWheelEvent(tick=0, channel=0, data=[10, 63]),
  midi.ControlChangeEvent(tick=0, channel=0, data=[11, 127]),
  midi.ControlChangeEvent(tick=2, channel=0, data=[11, 122]),
  midi.ControlChangeEvent(tick=4, channel=0, data=[11, 118]),
  midi.ControlChangeEvent(tick=2, channel=0, data=[7, 76]),
  midi.ControlChangeEvent(tick=0, channel=1, data=[7, 76]),
  midi.ControlChangeEvent(tick=0, channel=2, data=[7, 76]),
  midi.ControlChangeEvent(tick=0, channel=3, data=[7, 60]),
  midi.ControlChangeEvent(tick=0, channel=4, data=[7, 60]),
  midi.ControlChangeEvent(tick=0, channel=5, data=[7, 76]),
  midi.ControlChangeEvent(tick=0, channel=6, data=[7, 76]),
  midi.ControlChangeEvent(tick=0, channel=7, data=[7, 76]),
  midi.ControlChangeEvent(tick=0, channel=8, data=[7, 76]),
  midi.ControlChangeEvent(tick=0, channel=9, data=[7, 76]),
  midi.ControlChangeEvent(tick=0, channel=10, data=[7, 76]),
  midi.ControlChangeEvent(tick=0, channel=11, data=[7, 76]),
  midi.ControlChangeEvent(tick=0, channel=12, data=[7, 76]),
  midi.ControlChangeEvent(tick=0, channel=13, data=[7, 76]),
  midi.ControlChangeEvent(tick=0, channel=14, data=[7, 76]),
  midi.ControlChangeEvent(tick=0, channel=15, data=[7, 76]),
  midi.NoteOffEvent(tick=1, channel=0, data=[85, 0]),
  midi.NoteOnEvent(tick=9, channel=9, data=[59, 100]),
  midi.ControlChangeEvent(tick=0, channel=0, data=[7, 71]),
  midi.ControlChangeEvent(tick=0, channel=1, data=[7, 71]),
  midi.ControlChangeEvent(tick=0, channel=2, data=[7, 71]),
  midi.ControlChangeEvent(tick=0, channel=3, data=[7, 56]),
  midi.ControlChangeEvent(tick=0, channel=4, data=[7, 56]),
  midi.ControlChangeEvent(tick=0, channel=5, data=[7, 71]),
  midi.ControlChangeEvent(tick=0, channel=6, data=[7, 71]),
  midi.ControlChangeEvent(tick=0, channel=7, data=[7, 71]),
  midi.ControlChangeEvent(tick=0, channel=8, data=[7, 71]),
  midi.ControlChangeEvent(tick=0, channel=9, data=[7, 71]),
  midi.ControlChangeEvent(tick=0, channel=10, data=[7, 71]),
  midi.ControlChangeEvent(tick=0, channel=11, data=[7, 71]),
  midi.ControlChangeEvent(tick=0, channel=12, data=[7, 71]),
  midi.ControlChangeEvent(tick=0, channel=13, data=[7, 71]),
  midi.ControlChangeEvent(tick=0, channel=14, data=[7, 71]),
  midi.ControlChangeEvent(tick=0, channel=15, data=[7, 71]),
  midi.ControlChangeEvent(tick=10, channel=0, data=[7, 67]),
  midi.ControlChangeEvent(tick=0, channel=1, data=[7, 67]),
  midi.ControlChangeEvent(tick=0, channel=2, data=[7, 67]),
  midi.ControlChangeEvent(tick=0, channel=3, data=[7, 53]),
  midi.ControlChangeEvent(tick=0, channel=4, data=[7, 53]),
  midi.ControlChangeEvent(tick=0, channel=5, data=[7, 67]),
  midi.ControlChangeEvent(tick=0, channel=6, data=[7, 67]),
  midi.ControlChangeEvent(tick=0, channel=7, data=[7, 67]),
  midi.ControlChangeEvent(tick=0, channel=8, data=[7, 67]),
  midi.ControlChangeEvent(tick=0, channel=9, data=[7, 67]),
  midi.ControlChangeEvent(tick=0, channel=10, data=[7, 67]),
  midi.ControlChangeEvent(tick=0, channel=11, data=[7, 67]),
  midi.ControlChangeEvent(tick=0, channel=12, data=[7, 67]),
  midi.ControlChangeEvent(tick=0, channel=13, data=[7, 67]),
  midi.ControlChangeEvent(tick=0, channel=14, data=[7, 67]),
  midi.ControlChangeEvent(tick=0, channel=15, data=[7, 67]),
  midi.ControlChangeEvent(tick=10, channel=0, data=[7, 63]),
  midi.ControlChangeEvent(tick=0, channel=1, data=[7, 63]),
  midi.ControlChangeEvent(tick=0, channel=2, data=[7, 63]),
  midi.ControlChangeEvent(tick=0, channel=3, data=[7, 50]),
  midi.ControlChangeEvent(tick=0, channel=4, data=[7, 50]),
  midi.ControlChangeEvent(tick=0, channel=5, data=[7, 63]),
  midi.ControlChangeEvent(tick=0, channel=6, data=[7, 63]),
  midi.ControlChangeEvent(tick=0, channel=7, data=[7, 63]),
  midi.ControlChangeEvent(tick=0, channel=8, data=[7, 63]),
  midi.ControlChangeEvent(tick=0, channel=9, data=[7, 63]),
  midi.ControlChangeEvent(tick=0, channel=10, data=[7, 63]),
  midi.ControlChangeEvent(tick=0, channel=11, data=[7, 63]),
  midi.ControlChangeEvent(tick=0, channel=12, data=[7, 63]),
  midi.ControlChangeEvent(tick=0, channel=13, data=[7, 63]),
  midi.ControlChangeEvent(tick=0, channel=14, data=[7, 63]),
  midi.ControlChangeEvent(tick=0, channel=15, data=[7, 63]),
  midi.NoteOnEvent(tick=2, channel=0, data=[85, 127]),
  midi.PitchWheelEvent(tick=0, channel=0, data=[10, 63]),
  midi.ControlChangeEvent(tick=0, channel=0, data=[11, 127]),
  midi.NoteOffEvent(tick=1, channel=0, data=[85, 0]),
  midi.NoteOnEvent(tick=0, channel=0, data=[85, 127]),
  midi.PitchWheelEvent(tick=0, channel=0, data=[10, 63]),
  midi.ControlChangeEvent(tick=0, channel=0, data=[11, 122]),
  midi.NoteOffEvent(tick=1, channel=0, data=[85, 0]),
  midi.NoteOnEvent(tick=0, channel=0, data=[85, 127]),
  midi.PitchWheelEvent(tick=0, channel=0, data=[10, 63]),
  midi.ControlChangeEvent(tick=0, channel=0, data=[11, 127]),
  midi.NoteOffEvent(tick=1, channel=9, data=[59, 0]),
  midi.NoteOffEvent(tick=1, channel=0, data=[85, 0]),
  midi.NoteOnEvent(tick=0, channel=0, data=[85, 127]),
  midi.PitchWheelEvent(tick=0, channel=0, data=[10, 63]),
  midi.ControlChangeEvent(tick=0, channel=0, data=[11, 127]),
  midi.ControlChangeEvent(tick=1, channel=0, data=[11, 122]),
  midi.ControlChangeEvent(tick=3, channel=0, data=[7, 59]),
  midi.ControlChangeEvent(tick=0, channel=1, data=[7, 59]),
  midi.ControlChangeEvent(tick=0, channel=2, data=[7, 59]),
  midi.ControlChangeEvent(tick=0, channel=3, data=[7, 46]),
  midi.ControlChangeEvent(tick=0, channel=4, data=[7, 46]),
  midi.ControlChangeEvent(tick=0, channel=5, data=[7, 59]),
  midi.ControlChangeEvent(tick=0, channel=6, data=[7, 59]),
  midi.ControlChangeEvent(tick=0, channel=7, data=[7, 59]),
  midi.ControlChangeEvent(tick=0, channel=8, data=[7, 59]),
  midi.ControlChangeEvent(tick=0, channel=9, data=[7, 59]),
  midi.ControlChangeEvent(tick=0, channel=10, data=[7, 59]),
  midi.ControlChangeEvent(tick=0, channel=11, data=[7, 59]),
  midi.ControlChangeEvent(tick=0, channel=12, data=[7, 59]),
  midi.ControlChangeEvent(tick=0, channel=13, data=[7, 59]),
  midi.ControlChangeEvent(tick=0, channel=14, data=[7, 59]),
  midi.ControlChangeEvent(tick=0, channel=15, data=[7, 59]),
  midi.ControlChangeEvent(tick=1, channel=0, data=[11, 118]),
  midi.NoteOffEvent(tick=4, channel=0, data=[85, 0]),
  midi.ControlChangeEvent(tick=5, channel=0, data=[7, 55]),
  midi.ControlChangeEvent(tick=0, channel=1, data=[7, 55]),
  midi.ControlChangeEvent(tick=0, channel=2, data=[7, 55]),
  midi.ControlChangeEvent(tick=0, channel=3, data=[7, 43]),
  midi.ControlChangeEvent(tick=0, channel=4, data=[7, 43]),
  midi.ControlChangeEvent(tick=0, channel=5, data=[7, 55]),
  midi.ControlChangeEvent(tick=0, channel=6, data=[7, 55]),
  midi.ControlChangeEvent(tick=0, channel=7, data=[7, 55]),
  midi.ControlChangeEvent(tick=0, channel=8, data=[7, 55]),
  midi.ControlChangeEvent(tick=0, channel=9, data=[7, 55]),
  midi.ControlChangeEvent(tick=0, channel=10, data=[7, 55]),
  midi.ControlChangeEvent(tick=0, channel=11, data=[7, 55]),
  midi.ControlChangeEvent(tick=0, channel=12, data=[7, 55]),
  midi.ControlChangeEvent(tick=0, channel=13, data=[7, 55]),
  midi.ControlChangeEvent(tick=0, channel=14, data=[7, 55]),
  midi.ControlChangeEvent(tick=0, channel=15, data=[7, 55]),
  midi.NoteOnEvent(tick=4, channel=9, data=[59, 100]),
  midi.ControlChangeEvent(tick=6, channel=0, data=[7, 50]),
  midi.ControlChangeEvent(tick=0, channel=1, data=[7, 50]),
  midi.ControlChangeEvent(tick=0, channel=2, data=[7, 50]),
  midi.ControlChangeEvent(tick=0, channel=3, data=[7, 40]),
  midi.ControlChangeEvent(tick=0, channel=4, data=[7, 40]),
  midi.ControlChangeEvent(tick=0, channel=5, data=[7, 50]),
  midi.ControlChangeEvent(tick=0, channel=6, data=[7, 50]),
  midi.ControlChangeEvent(tick=0, channel=7, data=[7, 50]),
  midi.ControlChangeEvent(tick=0, channel=8, data=[7, 50]),
  midi.ControlChangeEvent(tick=0, channel=9, data=[7, 50]),
  midi.ControlChangeEvent(tick=0, channel=10, data=[7, 50]),
  midi.ControlChangeEvent(tick=0, channel=11, data=[7, 50]),
  midi.ControlChangeEvent(tick=0, channel=12, data=[7, 50]),
  midi.ControlChangeEvent(tick=0, channel=13, data=[7, 50]),
  midi.ControlChangeEvent(tick=0, channel=14, data=[7, 50]),
  midi.ControlChangeEvent(tick=0, channel=15, data=[7, 50]),
  midi.ControlChangeEvent(tick=10, channel=0, data=[7, 46]),
  midi.ControlChangeEvent(tick=0, channel=1, data=[7, 46]),
  midi.ControlChangeEvent(tick=0, channel=2, data=[7, 46]),
  midi.ControlChangeEvent(tick=0, channel=3, data=[7, 36]),
  midi.ControlChangeEvent(tick=0, channel=4, data=[7, 36]),
  midi.ControlChangeEvent(tick=0, channel=5, data=[7, 46]),
  midi.ControlChangeEvent(tick=0, channel=6, data=[7, 46]),
  midi.ControlChangeEvent(tick=0, channel=7, data=[7, 46]),
  midi.ControlChangeEvent(tick=0, channel=8, data=[7, 46]),
  midi.ControlChangeEvent(tick=0, channel=9, data=[7, 46]),
  midi.ControlChangeEvent(tick=0, channel=10, data=[7, 46]),
  midi.ControlChangeEvent(tick=0, channel=11, data=[7, 46]),
  midi.ControlChangeEvent(tick=0, channel=12, data=[7, 46]),
  midi.ControlChangeEvent(tick=0, channel=13, data=[7, 46]),
  midi.ControlChangeEvent(tick=0, channel=14, data=[7, 46]),
  midi.ControlChangeEvent(tick=0, channel=15, data=[7, 46]),
  midi.NoteOnEvent(tick=6, channel=0, data=[85, 127]),
  midi.PitchWheelEvent(tick=0, channel=0, data=[10, 63]),
  midi.ControlChangeEvent(tick=0, channel=0, data=[11, 122]),
  midi.NoteOffEvent(tick=1, channel=0, data=[85, 0]),
  midi.NoteOnEvent(tick=0, channel=0, data=[85, 127]),
  midi.PitchWheelEvent(tick=0, channel=0, data=[10, 63]),
  midi.ControlChangeEvent(tick=0, channel=0, data=[11, 127]),
  midi.NoteOffEvent(tick=1, channel=0, data=[85, 0]),
  midi.NoteOnEvent(tick=0, channel=0, data=[85, 127]),
  midi.PitchWheelEvent(tick=0, channel=0, data=[10, 63]),
  midi.ControlChangeEvent(tick=0, channel=0, data=[11, 127]),
  midi.NoteOffEvent(tick=1, channel=9, data=[59, 0]),
  midi.NoteOffEvent(tick=1, channel=0, data=[85, 0]),
  midi.NoteOnEvent(tick=0, channel=0, data=[85, 127]),
  midi.PitchWheelEvent(tick=0, channel=0, data=[10, 63]),
  midi.ControlChangeEvent(tick=0, channel=0, data=[11, 122]),
  midi.ControlChangeEvent(tick=0, channel=0, data=[7, 42]),
  midi.ControlChangeEvent(tick=0, channel=1, data=[7, 42]),
  midi.ControlChangeEvent(tick=0, channel=2, data=[7, 42]),
  midi.ControlChangeEvent(tick=0, channel=3, data=[7, 33]),
  midi.ControlChangeEvent(tick=0, channel=4, data=[7, 33]),
  midi.ControlChangeEvent(tick=0, channel=5, data=[7, 42]),
  midi.ControlChangeEvent(tick=0, channel=6, data=[7, 42]),
  midi.ControlChangeEvent(tick=0, channel=7, data=[7, 42]),
  midi.ControlChangeEvent(tick=0, channel=8, data=[7, 42]),
  midi.ControlChangeEvent(tick=0, channel=9, data=[7, 42]),
  midi.ControlChangeEvent(tick=0, channel=10, data=[7, 42]),
  midi.ControlChangeEvent(tick=0, channel=11, data=[7, 42]),
  midi.ControlChangeEvent(tick=0, channel=12, data=[7, 42]),
  midi.ControlChangeEvent(tick=0, channel=13, data=[7, 42]),
  midi.ControlChangeEvent(tick=0, channel=14, data=[7, 42]),
  midi.ControlChangeEvent(tick=0, channel=15, data=[7, 42]),
  midi.ControlChangeEvent(tick=4, channel=0, data=[11, 118]),
  midi.ControlChangeEvent(tick=4, channel=0, data=[11, 113]),
  midi.NoteOffEvent(tick=1, channel=0, data=[85, 0]),
  midi.ControlChangeEvent(tick=1, channel=0, data=[7, 38]),
  midi.ControlChangeEvent(tick=0, channel=1, data=[7, 38]),
  midi.ControlChangeEvent(tick=0, channel=2, data=[7, 38]),
  midi.ControlChangeEvent(tick=0, channel=3, data=[7, 30]),
  midi.ControlChangeEvent(tick=0, channel=4, data=[7, 30]),
  midi.ControlChangeEvent(tick=0, channel=5, data=[7, 38]),
  midi.ControlChangeEvent(tick=0, channel=6, data=[7, 38]),
  midi.ControlChangeEvent(tick=0, channel=7, data=[7, 38]),
  midi.ControlChangeEvent(tick=0, channel=8, data=[7, 38]),
  midi.ControlChangeEvent(tick=0, channel=9, data=[7, 38]),
  midi.ControlChangeEvent(tick=0, channel=10, data=[7, 38]),
  midi.ControlChangeEvent(tick=0, channel=11, data=[7, 38]),
  midi.ControlChangeEvent(tick=0, channel=12, data=[7, 38]),
  midi.ControlChangeEvent(tick=0, channel=13, data=[7, 38]),
  midi.ControlChangeEvent(tick=0, channel=14, data=[7, 38]),
  midi.ControlChangeEvent(tick=0, channel=15, data=[7, 38]),
  midi.ControlChangeEvent(tick=10, channel=0, data=[7, 33]),
  midi.ControlChangeEvent(tick=0, channel=1, data=[7, 33]),
  midi.ControlChangeEvent(tick=0, channel=2, data=[7, 33]),
  midi.ControlChangeEvent(tick=0, channel=3, data=[7, 26]),
  midi.ControlChangeEvent(tick=0, channel=4, data=[7, 26]),
  midi.ControlChangeEvent(tick=0, channel=5, data=[7, 33]),
  midi.ControlChangeEvent(tick=0, channel=6, data=[7, 33]),
  midi.ControlChangeEvent(tick=0, channel=7, data=[7, 33]),
  midi.ControlChangeEvent(tick=0, channel=8, data=[7, 33]),
  midi.ControlChangeEvent(tick=0, channel=9, data=[7, 33]),
  midi.ControlChangeEvent(tick=0, channel=10, data=[7, 33]),
  midi.ControlChangeEvent(tick=0, channel=11, data=[7, 33]),
  midi.ControlChangeEvent(tick=0, channel=12, data=[7, 33]),
  midi.ControlChangeEvent(tick=0, channel=13, data=[7, 33]),
  midi.ControlChangeEvent(tick=0, channel=14, data=[7, 33]),
  midi.ControlChangeEvent(tick=0, channel=15, data=[7, 33]),
  midi.NoteOnEvent(tick=9, channel=9, data=[59, 100]),
  midi.ControlChangeEvent(tick=1, channel=0, data=[7, 29]),
  midi.ControlChangeEvent(tick=0, channel=1, data=[7, 29]),
  midi.ControlChangeEvent(tick=0, channel=2, data=[7, 29]),
  midi.ControlChangeEvent(tick=0, channel=3, data=[7, 23]),
  midi.ControlChangeEvent(tick=0, channel=4, data=[7, 23]),
  midi.ControlChangeEvent(tick=0, channel=5, data=[7, 29]),
  midi.ControlChangeEvent(tick=0, channel=6, data=[7, 29]),
  midi.ControlChangeEvent(tick=0, channel=7, data=[7, 29]),
  midi.ControlChangeEvent(tick=0, channel=8, data=[7, 29]),
  midi.ControlChangeEvent(tick=0, channel=9, data=[7, 29]),
  midi.ControlChangeEvent(tick=0, channel=10, data=[7, 29]),
  midi.ControlChangeEvent(tick=0, channel=11, data=[7, 29]),
  midi.ControlChangeEvent(tick=0, channel=12, data=[7, 29]),
  midi.ControlChangeEvent(tick=0, channel=13, data=[7, 29]),
  midi.ControlChangeEvent(tick=0, channel=14, data=[7, 29]),
  midi.ControlChangeEvent(tick=0, channel=15, data=[7, 29]),
  midi.ControlChangeEvent(tick=10, channel=0, data=[7, 25]),
  midi.ControlChangeEvent(tick=0, channel=1, data=[7, 25]),
  midi.ControlChangeEvent(tick=0, channel=2, data=[7, 25]),
  midi.ControlChangeEvent(tick=0, channel=3, data=[7, 20]),
  midi.ControlChangeEvent(tick=0, channel=4, data=[7, 20]),
  midi.ControlChangeEvent(tick=0, channel=5, data=[7, 25]),
  midi.ControlChangeEvent(tick=0, channel=6, data=[7, 25]),
  midi.ControlChangeEvent(tick=0, channel=7, data=[7, 25]),
  midi.ControlChangeEvent(tick=0, channel=8, data=[7, 25]),
  midi.ControlChangeEvent(tick=0, channel=9, data=[7, 25]),
  midi.ControlChangeEvent(tick=0, channel=10, data=[7, 25]),
  midi.ControlChangeEvent(tick=0, channel=11, data=[7, 25]),
  midi.ControlChangeEvent(tick=0, channel=12, data=[7, 25]),
  midi.ControlChangeEvent(tick=0, channel=13, data=[7, 25]),
  midi.ControlChangeEvent(tick=0, channel=14, data=[7, 25]),
  midi.ControlChangeEvent(tick=0, channel=15, data=[7, 25]),
  midi.ControlChangeEvent(tick=10, channel=0, data=[7, 21]),
  midi.ControlChangeEvent(tick=0, channel=1, data=[7, 21]),
  midi.ControlChangeEvent(tick=0, channel=2, data=[7, 21]),
  midi.ControlChangeEvent(tick=0, channel=3, data=[7, 16]),
  midi.ControlChangeEvent(tick=0, channel=4, data=[7, 16]),
  midi.ControlChangeEvent(tick=0, channel=5, data=[7, 21]),
  midi.ControlChangeEvent(tick=0, channel=6, data=[7, 21]),
  midi.ControlChangeEvent(tick=0, channel=7, data=[7, 21]),
  midi.ControlChangeEvent(tick=0, channel=8, data=[7, 21]),
  midi.ControlChangeEvent(tick=0, channel=9, data=[7, 21]),
  midi.ControlChangeEvent(tick=0, channel=10, data=[7, 21]),
  midi.ControlChangeEvent(tick=0, channel=11, data=[7, 21]),
  midi.ControlChangeEvent(tick=0, channel=12, data=[7, 21]),
  midi.ControlChangeEvent(tick=0, channel=13, data=[7, 21]),
  midi.ControlChangeEvent(tick=0, channel=14, data=[7, 21]),
  midi.ControlChangeEvent(tick=0, channel=15, data=[7, 21]),
  midi.ControlChangeEvent(tick=10, channel=0, data=[7, 16]),
  midi.ControlChangeEvent(tick=0, channel=1, data=[7, 16]),
  midi.ControlChangeEvent(tick=0, channel=2, data=[7, 16]),
  midi.ControlChangeEvent(tick=0, channel=3, data=[7, 13]),
  midi.ControlChangeEvent(tick=0, channel=4, data=[7, 13]),
  midi.ControlChangeEvent(tick=0, channel=5, data=[7, 16]),
  midi.ControlChangeEvent(tick=0, channel=6, data=[7, 16]),
  midi.ControlChangeEvent(tick=0, channel=7, data=[7, 16]),
  midi.ControlChangeEvent(tick=0, channel=8, data=[7, 16]),
  midi.ControlChangeEvent(tick=0, channel=9, data=[7, 16]),
  midi.ControlChangeEvent(tick=0, channel=10, data=[7, 16]),
  midi.ControlChangeEvent(tick=0, channel=11, data=[7, 16]),
  midi.ControlChangeEvent(tick=0, channel=12, data=[7, 16]),
  midi.ControlChangeEvent(tick=0, channel=13, data=[7, 16]),
  midi.ControlChangeEvent(tick=0, channel=14, data=[7, 16]),
  midi.ControlChangeEvent(tick=0, channel=15, data=[7, 16]),
  midi.NoteOnEvent(tick=2, channel=0, data=[85, 127]),
  midi.PitchWheelEvent(tick=0, channel=0, data=[10, 63]),
  midi.ControlChangeEvent(tick=0, channel=0, data=[11, 127]),
  midi.NoteOffEvent(tick=1, channel=0, data=[85, 0]),
  midi.NoteOnEvent(tick=0, channel=0, data=[85, 127]),
  midi.PitchWheelEvent(tick=0, channel=0, data=[10, 63]),
  midi.ControlChangeEvent(tick=0, channel=0, data=[11, 127]),
  midi.NoteOffEvent(tick=1, channel=0, data=[85, 0]),
  midi.NoteOnEvent(tick=0, channel=0, data=[85, 127]),
  midi.PitchWheelEvent(tick=0, channel=0, data=[10, 63]),
  midi.ControlChangeEvent(tick=0, channel=0, data=[11, 127]),
  midi.ControlChangeEvent(tick=1, channel=0, data=[11, 122]),
  midi.NoteOffEvent(tick=1, channel=0, data=[85, 0]),
  midi.NoteOnEvent(tick=0, channel=0, data=[85, 127]),
  midi.PitchWheelEvent(tick=0, channel=0, data=[10, 63]),
  midi.ControlChangeEvent(tick=0, channel=0, data=[11, 127]),
  midi.ControlChangeEvent(tick=3, channel=0, data=[11, 122]),
  midi.ControlChangeEvent(tick=1, channel=0, data=[7, 12]),
  midi.ControlChangeEvent(tick=0, channel=1, data=[7, 12]),
  midi.ControlChangeEvent(tick=0, channel=2, data=[7, 12]),
  midi.ControlChangeEvent(tick=0, channel=3, data=[7, 10]),
  midi.ControlChangeEvent(tick=0, channel=4, data=[7, 10]),
  midi.ControlChangeEvent(tick=0, channel=5, data=[7, 12]),
  midi.ControlChangeEvent(tick=0, channel=6, data=[7, 12]),
  midi.ControlChangeEvent(tick=0, channel=7, data=[7, 12]),
  midi.ControlChangeEvent(tick=0, channel=8, data=[7, 12]),
  midi.ControlChangeEvent(tick=0, channel=9, data=[7, 12]),
  midi.ControlChangeEvent(tick=0, channel=10, data=[7, 12]),
  midi.ControlChangeEvent(tick=0, channel=11, data=[7, 12]),
  midi.ControlChangeEvent(tick=0, channel=12, data=[7, 12]),
  midi.ControlChangeEvent(tick=0, channel=13, data=[7, 12]),
  midi.ControlChangeEvent(tick=0, channel=14, data=[7, 12]),
  midi.ControlChangeEvent(tick=0, channel=15, data=[7, 12]),
  midi.ControlChangeEvent(tick=3, channel=0, data=[11, 118]),
  midi.NoteOffEvent(tick=2, channel=0, data=[85, 0]),
  midi.NoteOffEvent(tick=1, channel=9, data=[59, 0]),
  midi.ControlChangeEvent(tick=4, channel=0, data=[7, 8]),
  midi.ControlChangeEvent(tick=0, channel=1, data=[7, 8]),
  midi.ControlChangeEvent(tick=0, channel=2, data=[7, 8]),
  midi.ControlChangeEvent(tick=0, channel=3, data=[7, 6]),
  midi.ControlChangeEvent(tick=0, channel=4, data=[7, 6]),
  midi.ControlChangeEvent(tick=0, channel=5, data=[7, 8]),
  midi.ControlChangeEvent(tick=0, channel=6, data=[7, 8]),
  midi.ControlChangeEvent(tick=0, channel=7, data=[7, 8]),
  midi.ControlChangeEvent(tick=0, channel=8, data=[7, 8]),
  midi.ControlChangeEvent(tick=0, channel=9, data=[7, 8]),
  midi.ControlChangeEvent(tick=0, channel=10, data=[7, 8]),
  midi.ControlChangeEvent(tick=0, channel=11, data=[7, 8]),
  midi.ControlChangeEvent(tick=0, channel=12, data=[7, 8]),
  midi.ControlChangeEvent(tick=0, channel=13, data=[7, 8]),
  midi.ControlChangeEvent(tick=0, channel=14, data=[7, 8]),
  midi.ControlChangeEvent(tick=0, channel=15, data=[7, 8]),
  midi.NoteOnEvent(tick=4, channel=0, data=[85, 127]),
  midi.PitchWheelEvent(tick=0, channel=0, data=[10, 63]),
  midi.ControlChangeEvent(tick=0, channel=0, data=[11, 127]),
  midi.NoteOffEvent(tick=1, channel=0, data=[85, 0]),
  midi.NoteOnEvent(tick=0, channel=0, data=[85, 127]),
  midi.PitchWheelEvent(tick=0, channel=0, data=[10, 63]),
  midi.ControlChangeEvent(tick=0, channel=0, data=[11, 127]),
  midi.NoteOffEvent(tick=1, channel=0, data=[85, 0]),
  midi.NoteOnEvent(tick=0, channel=0, data=[85, 127]),
  midi.PitchWheelEvent(tick=0, channel=0, data=[10, 63]),
  midi.ControlChangeEvent(tick=0, channel=0, data=[11, 122]),
  midi.NoteOffEvent(tick=2, channel=0, data=[85, 0]),
  midi.NoteOnEvent(tick=0, channel=0, data=[85, 127]),
  midi.PitchWheelEvent(tick=0, channel=0, data=[10, 63]),
  midi.ControlChangeEvent(tick=0, channel=0, data=[11, 127]),
  midi.ControlChangeEvent(tick=2, channel=0, data=[11, 122]),
  midi.ControlChangeEvent(tick=0, channel=0, data=[7, 4]),
  midi.ControlChangeEvent(tick=0, channel=1, data=[7, 4]),
  midi.ControlChangeEvent(tick=0, channel=2, data=[7, 4]),
  midi.ControlChangeEvent(tick=0, channel=3, data=[7, 3]),
  midi.ControlChangeEvent(tick=0, channel=4, data=[7, 3]),
  midi.ControlChangeEvent(tick=0, channel=5, data=[7, 4]),
  midi.ControlChangeEvent(tick=0, channel=6, data=[7, 4]),
  midi.ControlChangeEvent(tick=0, channel=7, data=[7, 4]),
  midi.ControlChangeEvent(tick=0, channel=8, data=[7, 4]),
  midi.ControlChangeEvent(tick=0, channel=9, data=[7, 4]),
  midi.ControlChangeEvent(tick=0, channel=10, data=[7, 4]),
  midi.ControlChangeEvent(tick=0, channel=11, data=[7, 4]),
  midi.ControlChangeEvent(tick=0, channel=12, data=[7, 4]),
  midi.ControlChangeEvent(tick=0, channel=13, data=[7, 4]),
  midi.ControlChangeEvent(tick=0, channel=14, data=[7, 4]),
  midi.ControlChangeEvent(tick=0, channel=15, data=[7, 4]),
  midi.ControlChangeEvent(tick=4, channel=0, data=[11, 118]),
  midi.NoteOffEvent(tick=3, channel=0, data=[85, 0]),
  midi.ControlChangeEvent(tick=3, channel=0, data=[123, 0]),
  midi.ControlChangeEvent(tick=0, channel=1, data=[123, 0]),
  midi.ControlChangeEvent(tick=0, channel=2, data=[123, 0]),
  midi.ControlChangeEvent(tick=0, channel=3, data=[123, 0]),
  midi.ControlChangeEvent(tick=0, channel=4, data=[123, 0]),
  midi.ControlChangeEvent(tick=0, channel=5, data=[123, 0]),
  midi.ControlChangeEvent(tick=0, channel=6, data=[123, 0]),
  midi.ControlChangeEvent(tick=0, channel=7, data=[123, 0]),
  midi.ControlChangeEvent(tick=0, channel=8, data=[123, 0]),
  midi.ControlChangeEvent(tick=0, channel=9, data=[123, 0]),
  midi.ControlChangeEvent(tick=0, channel=10, data=[123, 0]),
  midi.ControlChangeEvent(tick=0, channel=11, data=[123, 0]),
  midi.ControlChangeEvent(tick=0, channel=12, data=[123, 0]),
  midi.ControlChangeEvent(tick=0, channel=13, data=[123, 0]),
  midi.ControlChangeEvent(tick=0, channel=14, data=[123, 0]),
  midi.ControlChangeEvent(tick=0, channel=15, data=[123, 0]),
  midi.ControlChangeEvent(tick=0, channel=0, data=[127, 127]),
  midi.ControlChangeEvent(tick=0, channel=1, data=[127, 127]),
  midi.ControlChangeEvent(tick=0, channel=2, data=[127, 127]),
  midi.ControlChangeEvent(tick=0, channel=3, data=[127, 127]),
  midi.ControlChangeEvent(tick=0, channel=4, data=[127, 127]),
  midi.ControlChangeEvent(tick=0, channel=5, data=[127, 127]),
  midi.ControlChangeEvent(tick=0, channel=6, data=[127, 127]),
  midi.ControlChangeEvent(tick=0, channel=7, data=[127, 127]),
  midi.ControlChangeEvent(tick=0, channel=8, data=[127, 127]),
  midi.ControlChangeEvent(tick=0, channel=9, data=[127, 127]),
  midi.ControlChangeEvent(tick=0, channel=10, data=[127, 127]),
  midi.ControlChangeEvent(tick=0, channel=11, data=[127, 127]),
  midi.ControlChangeEvent(tick=0, channel=12, data=[127, 127]),
  midi.ControlChangeEvent(tick=0, channel=13, data=[127, 127]),
  midi.ControlChangeEvent(tick=0, channel=14, data=[127, 127]),
  midi.ControlChangeEvent(tick=0, channel=15, data=[127, 127]),
  midi.ControlChangeEvent(tick=0, channel=0, data=[121, 0]),
  midi.ControlChangeEvent(tick=0, channel=1, data=[121, 0]),
  midi.ControlChangeEvent(tick=0, channel=2, data=[121, 0]),
  midi.ControlChangeEvent(tick=0, channel=3, data=[121, 0]),
  midi.ControlChangeEvent(tick=0, channel=4, data=[121, 0]),
  midi.ControlChangeEvent(tick=0, channel=5, data=[121, 0]),
  midi.ControlChangeEvent(tick=0, channel=6, data=[121, 0]),
  midi.ControlChangeEvent(tick=0, channel=7, data=[121, 0]),
  midi.ControlChangeEvent(tick=0, channel=8, data=[121, 0]),
  midi.ControlChangeEvent(tick=0, channel=9, data=[121, 0]),
  midi.ControlChangeEvent(tick=0, channel=10, data=[121, 0]),
  midi.ControlChangeEvent(tick=0, channel=11, data=[121, 0]),
  midi.ControlChangeEvent(tick=0, channel=12, data=[121, 0]),
  midi.ControlChangeEvent(tick=0, channel=13, data=[121, 0]),
  midi.ControlChangeEvent(tick=0, channel=14, data=[121, 0]),
  midi.ControlChangeEvent(tick=0, channel=15, data=[121, 0]),
  midi.EndOfTrackEvent(tick=0, data=[])]])
